<svg width="196" height="100" viewBox="0 0 196 100" fill="none" xmlns="http://www.w3.org/2000/svg">
<rect x="46" y="33" width="17" height="11" fill="#916C5A"/>
<rect x="46" y="25" width="17" height="11" fill="#FFF1E7"/>
<path d="M20.5078 48H1.75781V43.3125H6.44531V16.3594H1.75781V11.6719H20.5078C22.6074 11.6719 24.5898 11.9062 26.4551 12.375C28.3203 12.834 29.9707 13.4785 31.4062 14.3086C32.8516 15.1289 34.1455 16.1055 35.2881 17.2383C36.4404 18.3711 37.3877 19.6113 38.1299 20.959C38.8818 22.3066 39.4531 23.7324 39.8438 25.2363C40.2344 26.7305 40.4297 28.2637 40.4297 29.8359C40.4297 31.4082 40.2344 32.9463 39.8438 34.4502C39.4531 35.9443 38.8818 37.3652 38.1299 38.7129C37.3877 40.0605 36.4404 41.3008 35.2881 42.4336C34.1455 43.5664 32.8516 44.5479 31.4062 45.3779C29.9707 46.1982 28.3203 46.8428 26.4551 47.3115C24.5898 47.7705 22.6074 48 20.5078 48ZM20.5078 43.3125C22.0312 43.3125 23.3936 42.9756 24.5947 42.3018C25.7959 41.6182 26.7773 40.6709 27.5391 39.46C28.3105 38.249 28.8916 36.833 29.2822 35.2119C29.6826 33.5811 29.8828 31.7891 29.8828 29.8359C29.8828 28.2734 29.7656 26.8184 29.5312 25.4707C29.2969 24.123 28.9307 22.8877 28.4326 21.7646C27.9346 20.6318 27.3193 19.6699 26.5869 18.8789C25.8643 18.0781 24.9854 17.458 23.9502 17.0186C22.915 16.5791 21.7676 16.3594 20.5078 16.3594H15.8203V43.3125H20.5078ZM38.5664 21.0469H49.6992V37.4531C49.6992 38.9961 49.8359 40.1973 50.1094 41.0566C50.3926 41.916 50.793 42.5068 51.3105 42.8291C51.8379 43.1514 52.5508 43.3125 53.4492 43.3125C54.2695 43.3125 55.1094 42.9658 55.9688 42.2725C56.8379 41.5791 57.6582 40.6123 58.4297 39.3721L58.4883 25.7344H55.5586V21.0469H66.6914V43.3125H69.6211V48H60.5244L58.4736 44.0156C56.8232 47.0625 54.0938 48.5859 50.2852 48.5859C48.918 48.5859 47.7217 48.4004 46.6963 48.0293C45.6709 47.6582 44.8311 47.1504 44.1768 46.5059C43.5225 45.8516 42.9902 45.0264 42.5801 44.0303C42.1797 43.0244 41.8965 41.9502 41.7305 40.8076C41.5742 39.6553 41.4961 38.3418 41.4961 36.8672V25.7344H38.5664V21.0469ZM76.3271 21.5596C78.0459 20.8857 79.8672 20.5488 81.791 20.5488C83.7148 20.5488 85.5312 20.8857 87.2402 21.5596C88.959 22.2334 90.4531 23.1758 91.7227 24.3867C92.9922 25.5879 93.9932 27.0723 94.7256 28.8398C95.4678 30.6074 95.8389 32.5312 95.8389 34.6113C95.8389 36.6914 95.4678 38.6152 94.7256 40.3828C93.9932 42.1504 92.9922 43.6396 91.7227 44.8506C90.4531 46.0518 88.959 46.9893 87.2402 47.6631C85.5312 48.3369 83.7148 48.6738 81.791 48.6738C79.8672 48.6738 78.0459 48.3369 76.3271 47.6631C74.6182 46.9893 73.1289 46.0518 71.8594 44.8506C70.5996 43.6396 69.5986 42.1504 68.8564 40.3828C68.124 38.6152 67.7578 36.6914 67.7578 34.6113C67.7578 32.5312 68.124 30.6074 68.8564 28.8398C69.5986 27.0723 70.5996 25.5879 71.8594 24.3867C73.1289 23.1758 74.6182 22.2334 76.3271 21.5596ZM81.791 25.2363C81.1074 25.2363 80.4971 25.334 79.96 25.5293C79.4229 25.7246 78.9297 26.0469 78.4805 26.4961C78.0312 26.9453 77.6602 27.5264 77.3672 28.2393C77.084 28.9521 76.8594 29.8408 76.6934 30.9053C76.5371 31.9697 76.459 33.2051 76.459 34.6113C76.459 36.0176 76.5371 37.2529 76.6934 38.3174C76.8594 39.3818 77.084 40.2705 77.3672 40.9834C77.6602 41.6963 78.0312 42.2773 78.4805 42.7266C78.9297 43.1758 79.4229 43.498 79.96 43.6934C80.4971 43.8887 81.1074 43.9863 81.791 43.9863C82.6504 43.9863 83.3975 43.8252 84.0322 43.5029C84.667 43.1709 85.2188 42.6436 85.6875 41.9209C86.166 41.1982 86.5225 40.2266 86.7568 39.0059C87.001 37.7852 87.123 36.3203 87.123 34.6113C87.123 32.9023 87.001 31.4375 86.7568 30.2168C86.5225 28.9961 86.166 28.0244 85.6875 27.3018C85.2188 26.5791 84.667 26.0566 84.0322 25.7344C83.3975 25.4023 82.6504 25.2363 81.791 25.2363ZM113.883 11.0859C119.01 11.0859 123.111 12.4531 126.188 15.1875C127.447 16.3008 128.346 17.4238 128.883 18.5566C129.43 19.6797 129.703 21.0957 129.703 22.8047C129.703 24.1035 129.244 25.2119 128.326 26.1299C127.418 27.0381 126.314 27.4922 125.016 27.4922C123.717 27.4922 122.608 27.0381 121.69 26.1299C120.782 25.2119 120.328 24.1035 120.328 22.8047C120.328 22.1406 120.46 21.5156 120.724 20.9297C120.987 20.334 121.354 19.8164 121.822 19.377C121.119 18.0684 120.167 17.1406 118.966 16.5938C117.774 16.0469 116.275 15.7734 114.469 15.7734C113.287 15.7734 112.188 16.0127 111.173 16.4912C110.167 16.9697 109.293 17.6387 108.551 18.498C107.818 19.3574 107.188 20.373 106.661 21.5449C106.134 22.7168 105.738 24.0059 105.475 25.4121C105.221 26.8086 105.094 28.2832 105.094 29.8359C105.094 31.3691 105.25 32.8438 105.562 34.2598C105.875 35.6758 106.329 36.9648 106.925 38.127C107.521 39.2891 108.219 40.3047 109.02 41.1738C109.82 42.0332 110.738 42.7021 111.773 43.1807C112.818 43.6592 113.912 43.8984 115.055 43.8984C116.715 43.8984 118.258 43.4541 119.684 42.5654C121.119 41.6768 122.306 40.4316 123.243 38.8301C124.19 37.2188 124.781 35.3926 125.016 33.3516L129.703 34.5234C129.469 35.666 129.195 36.7305 128.883 37.7168C128.57 38.6934 128.18 39.6699 127.711 40.6465C127.242 41.6133 126.71 42.4873 126.114 43.2686C125.519 44.0498 124.815 44.7773 124.005 45.4512C123.194 46.125 122.301 46.6914 121.324 47.1504C120.348 47.5996 119.229 47.9512 117.97 48.2051C116.71 48.459 115.348 48.5859 113.883 48.5859C112.135 48.5859 110.465 48.4004 108.873 48.0293C107.291 47.668 105.855 47.1602 104.566 46.5059C103.287 45.8516 102.105 45.0703 101.021 44.1621C99.9375 43.2539 99 42.2529 98.209 41.1592C97.418 40.0557 96.7441 38.8887 96.1875 37.6582C95.6406 36.418 95.2305 35.1436 94.957 33.835C94.6836 32.5166 94.5469 31.1836 94.5469 29.8359C94.5469 28.4883 94.6836 27.1602 94.957 25.8516C95.2305 24.5332 95.6406 23.2588 96.1875 22.0283C96.7441 20.7881 97.418 19.6211 98.209 18.5273C99 17.4238 99.9375 16.418 101.021 15.5098C102.105 14.6016 103.287 13.8203 104.566 13.166C105.855 12.5117 107.291 12.0039 108.873 11.6426C110.465 11.2715 112.135 11.0859 113.883 11.0859ZM146.883 20.4609C148.25 20.4609 149.446 20.6465 150.472 21.0176C151.497 21.3887 152.337 21.9014 152.991 22.5557C153.646 23.2002 154.173 24.0254 154.573 25.0312C154.983 26.0273 155.267 27.1016 155.423 28.2539C155.589 29.3965 155.672 30.7051 155.672 32.1797V43.3125H158.602V48H144.539V43.3125H147.469V31.5938C147.469 30.0508 147.327 28.8496 147.044 27.9902C146.771 27.1309 146.37 26.54 145.843 26.2178C145.325 25.8955 144.617 25.7344 143.719 25.7344C142.889 25.7344 142.034 26.0908 141.155 26.8037C140.286 27.5166 139.461 28.5127 138.68 29.792V43.3125H141.609V48H127.547V43.3125H130.477V16.3594H127.547V11.6719H138.68V25.0459C139.031 24.3916 139.446 23.8008 139.925 23.2734C140.403 22.7461 140.97 22.2676 141.624 21.8379C142.278 21.3984 143.05 21.0615 143.938 20.8271C144.837 20.583 145.818 20.4609 146.883 20.4609ZM160.151 17.9268C159.243 17.0088 158.789 15.9004 158.789 14.6016C158.789 13.3027 159.243 12.1992 160.151 11.291C161.069 10.373 162.178 9.91406 163.477 9.91406C164.775 9.91406 165.879 10.373 166.787 11.291C167.705 12.1992 168.164 13.3027 168.164 14.6016C168.164 15.9004 167.705 17.0088 166.787 17.9268C165.879 18.835 164.775 19.2891 163.477 19.2891C162.178 19.2891 161.069 18.835 160.151 17.9268ZM156.445 21.0469H167.578V43.3125H170.508V48H156.445V43.3125H159.375V25.7344H156.445V21.0469ZM168.352 11.6719H179.484V43.3125H182.414V48H168.352V43.3125H171.281V16.3594H168.352V11.6719ZM180.258 11.6719H191.391V43.3125H194.32V48H180.258V43.3125H183.188V16.3594H180.258V11.6719Z" fill="#E3C3AB"/>
<path d="M70.9478 53.3927C76.0748 53.3927 79.7005 54.6744 81.8248 57.2377C82.6971 58.2814 83.2046 59.3342 83.3474 60.3962C83.5034 61.449 83.2839 62.7765 82.6891 64.3786C82.237 65.5962 81.3922 66.6353 80.1547 67.4958C78.9303 68.3472 77.6688 68.7729 76.3699 68.7729C75.0711 68.7729 74.1208 68.3472 73.5189 67.4958C72.9303 66.6353 72.862 65.5962 73.3141 64.3786C73.5452 63.756 73.8946 63.1701 74.3622 62.6208C74.8333 62.0624 75.3796 61.5772 76.0013 61.1652C75.7537 59.9384 75.1245 59.0687 74.1137 58.5561C73.1126 58.0434 71.7088 57.787 69.9021 57.787C68.7205 57.787 67.5386 58.0113 66.3564 58.4599C65.184 58.9085 64.0771 59.5356 63.0358 60.3413C62.0042 61.1469 61.0208 62.099 60.0856 63.1976C59.1503 64.2962 58.3061 65.5046 57.553 66.8229C56.813 68.1321 56.1727 69.5145 55.6322 70.9701C55.0986 72.4075 54.7415 73.7898 54.5611 75.1173C54.3808 76.4448 54.3862 77.6532 54.5774 78.7427C54.7685 79.8321 55.1133 80.7842 55.6115 81.599C56.1132 82.4046 56.7983 83.0317 57.6669 83.4803C58.5452 83.9289 59.5557 84.1532 60.6983 84.1532C62.3584 84.1532 64.0561 83.7367 65.7912 82.9036C67.5361 82.0705 69.156 80.9032 70.651 79.4018C72.1591 77.8913 73.3856 76.1793 74.3304 74.2659L78.61 75.3645C77.9779 76.4356 77.334 77.4335 76.6781 78.3582C76.0257 79.2736 75.2952 80.1891 74.4865 81.1046C73.6812 82.011 72.8448 82.8303 71.9771 83.5627C71.1095 84.2951 70.1531 84.9772 69.108 85.6089C68.0629 86.2405 66.9722 86.7715 65.8359 87.2018C64.703 87.6229 63.4624 87.9525 62.1143 88.1905C60.7661 88.4286 59.3596 88.5476 57.8948 88.5476C56.1467 88.5476 54.5414 88.3736 53.0788 88.0258C51.6225 87.687 50.3637 87.211 49.3024 86.5976C48.2509 85.9842 47.3412 85.2518 46.5733 84.4004C45.8055 83.549 45.2164 82.6106 44.8061 81.5853C44.3992 80.5508 44.1316 79.4567 44.0032 78.3032C43.888 77.1405 43.9215 75.9458 44.1035 74.7191C44.289 73.4832 44.6163 72.2335 45.0854 70.9701C45.5545 69.7067 46.1535 68.4617 46.8824 67.2349C47.6147 65.999 48.4685 64.8043 49.4437 63.6508C50.432 62.4881 51.5121 61.3941 52.6838 60.3687C53.8589 59.3342 55.1465 58.3913 56.5467 57.5399C57.9468 56.6884 59.4003 55.9561 60.9074 55.3427C62.4242 54.7293 64.0365 54.2532 65.7443 53.9145C67.4653 53.5666 69.1998 53.3927 70.9478 53.3927ZM105.775 67.1251L107.406 62.7307H111.508C112.786 59.2884 114.83 56.5969 117.641 54.6561C120.451 52.7152 123.868 51.7448 127.892 51.7448C129.396 51.7448 130.624 51.8684 131.577 52.1156C132.534 52.3536 133.214 52.6649 133.618 53.0494C134.022 53.4339 134.298 53.9145 134.445 54.4913C134.62 55.1504 134.558 55.8828 134.259 56.6884C133.807 57.9061 132.962 58.9451 131.725 59.8057C130.501 60.6571 129.239 61.0828 127.94 61.0828C126.641 61.0828 125.691 60.6571 125.089 59.8057C124.5 58.9451 124.432 57.9061 124.884 56.6884C124.952 56.5053 125.03 56.3222 125.118 56.1391C125.108 56.1391 125.098 56.1391 125.088 56.1391C124.073 56.1391 123.13 56.6793 122.26 57.7596C121.39 58.8399 120.54 60.4969 119.711 62.7307H128.5L126.869 67.1251H118.079L111.961 83.6039H118.406L116.775 87.9983H99.1964L100.828 83.6039H103.758L109.876 67.1251H105.775ZM129.508 77.0124C129.201 78.0744 129.035 79.0219 129.009 79.855C128.983 80.6881 129.072 81.3701 129.275 81.9011C129.488 82.4321 129.798 82.8715 130.206 83.2194C130.617 83.5582 131.079 83.8008 131.591 83.9472C132.107 84.0846 132.687 84.1532 133.331 84.1532C135.392 84.1532 137.136 83.7824 138.563 83.0409C140.004 82.2902 141.36 81.1367 142.632 79.5803L146.059 80.8437C145.378 81.7317 144.617 82.5694 143.778 83.3567C142.952 84.1349 142.036 84.8536 141.029 85.5127C140.023 86.1719 138.963 86.7395 137.848 87.2155C136.747 87.6824 135.561 88.0486 134.291 88.3141C133.021 88.5796 131.736 88.7124 130.437 88.7124C128.513 88.7124 126.809 88.3965 125.325 87.7648C123.851 87.1332 122.688 86.2543 121.836 85.1282C120.998 83.993 120.515 82.5969 120.388 80.9398C120.271 79.2828 120.575 77.4793 121.299 75.5293C122.023 73.5793 123.062 71.7666 124.417 70.0913C125.781 68.4159 127.305 67.006 128.99 65.8617C130.688 64.7082 132.512 63.8064 134.462 63.1564C136.422 62.5064 138.364 62.1814 140.288 62.1814C142.212 62.1814 143.908 62.5064 145.375 63.1564C146.853 63.8064 148.007 64.7082 148.839 65.8617C149.683 67.006 150.161 68.4159 150.271 70.0913C150.391 71.7666 150.089 73.5793 149.365 75.5293L148.448 77.0124H129.508ZM131.242 72.618H141.584C142.112 70.5124 142.12 68.9789 141.607 68.0177C141.095 67.0564 140.121 66.5758 138.686 66.5758C137.973 66.5758 137.292 66.6856 136.644 66.9053C136 67.1159 135.365 67.4592 134.739 67.9353C134.116 68.4022 133.507 69.0293 132.912 69.8166C132.33 70.5948 131.774 71.5286 131.242 72.618Z" fill="black"/>
<path d="M103.102 71.4508L98.5897 83.6039H101.519L99.8878 87.9983H90.7618L90.5187 85.142C89.0263 86.4786 87.5291 87.3941 86.0272 87.8884C84.5351 88.3828 82.6122 88.63 80.2587 88.63C79.038 88.63 77.9751 88.4286 77.07 88.0258C76.1712 87.6321 75.4782 87.092 74.991 86.4053C74.5135 85.7187 74.2433 84.8948 74.1803 83.9335C74.127 82.9722 74.3044 81.9423 74.7123 80.8437C75.4159 78.9486 76.7899 77.3786 78.8342 76.1335C80.8819 74.8793 83.1363 74.2522 85.5972 74.2522C87.5796 74.2522 89.154 74.4307 90.3202 74.7877C91.4899 75.1356 92.3958 75.6941 93.038 76.4631L95.1999 70.6406C95.5059 69.8166 95.6387 69.13 95.5985 68.5807C95.5715 68.0222 95.3731 67.5965 95.0034 67.3036C94.6371 67.0015 94.1781 66.7909 93.6266 66.6719C93.0751 66.5529 92.3843 66.4934 91.5542 66.4934C90.8902 66.4934 90.2403 66.6261 89.6046 66.8916C89.6864 67.4867 89.6049 68.1138 89.3602 68.7729C88.9081 69.9906 88.0633 71.0296 86.8258 71.8902C85.6014 72.7416 84.3399 73.1673 83.041 73.1673C81.7422 73.1673 80.7919 72.7416 80.19 71.8902C79.6014 71.0296 79.5331 69.9906 79.9852 68.7729C80.2163 68.1504 80.5608 67.5645 81.0187 67.0152C81.4863 66.4659 82.0261 65.9853 82.638 65.5733C83.1714 65.1888 83.7042 64.8455 84.2363 64.5434C84.7718 64.2321 85.413 63.9254 86.1599 63.6233C86.92 63.312 87.7135 63.0557 88.5402 62.8543C89.3669 62.6529 90.3249 62.4927 91.414 62.3737C92.5162 62.2455 93.6924 62.1814 94.9424 62.1814C96.5635 62.1814 98.0036 62.4057 99.2629 62.8543C100.522 63.3029 101.521 63.9254 102.261 64.7219C103 65.5184 103.452 66.4979 103.616 67.6606C103.78 68.8233 103.609 70.0867 103.102 71.4508ZM91.0189 81.9011L91.7225 80.006C91.3176 79.4659 90.8023 79.0127 90.1765 78.6465C89.5639 78.2712 88.9354 78.0835 88.2908 78.0835C86.9041 78.0835 85.846 78.3032 85.1164 78.7427C84.3902 79.1729 83.847 79.8733 83.4867 80.8437C83.055 82.0064 82.9813 82.8624 83.2656 83.4117C83.5499 83.961 84.3562 84.2356 85.6843 84.2356C86.4363 84.2356 87.3008 84.0113 88.2779 83.5627C89.2682 83.105 90.1818 82.5511 91.0189 81.9011Z" fill="white"/>
<path d="M81.8248 57.2377L80.9003 57.9384L80.9018 57.9402L81.8248 57.2377ZM83.3474 60.3962L82.2947 60.7978L82.296 60.8066L83.3474 60.3962ZM73.5189 67.4958L72.5632 68.1552L72.5682 68.1623L73.5189 67.4958ZM74.3622 62.6208L75.1313 63.0055L75.1358 63.0003L74.3622 62.6208ZM76.0013 61.1652L76.4313 61.8491L77.1751 61.3563L77.047 60.7215L76.0013 61.1652ZM74.1137 58.5561L73.3802 59.408L73.3825 59.4092L74.1137 58.5561ZM66.3564 58.4599L66.2451 57.6119L66.2411 57.6134L66.3564 58.4599ZM63.0358 60.3413L62.5065 59.7285L62.5005 59.7332L63.0358 60.3413ZM57.553 66.8229L56.6342 66.6502L56.6314 66.6552L57.553 66.8229ZM54.5611 75.1173L53.5096 75.3193L54.5611 75.1173ZM55.6115 81.599L54.6402 82.2342L54.6426 82.2381L55.6115 81.599ZM57.6669 83.4803L56.9313 84.3313L56.934 84.3327L57.6669 83.4803ZM65.7912 82.9036L65.5608 82.1065L65.5576 82.108L65.7912 82.9036ZM70.651 79.4018L69.9653 78.9267L69.9638 78.9282L70.651 79.4018ZM74.3304 74.2659L74.9106 73.3564L73.9009 73.0972L73.3766 74.159L74.3304 74.2659ZM78.61 75.3645L79.5196 75.5529L80.0389 74.6729L79.1902 74.455L78.61 75.3645ZM76.6781 78.3582L77.5245 78.6439L77.5263 78.6413L76.6781 78.3582ZM74.4865 81.1046L75.2344 81.5136L75.2374 81.5103L74.4865 81.1046ZM71.9771 83.5627L71.393 82.9943L71.9771 83.5627ZM69.108 85.6089L68.7364 84.888L69.108 85.6089ZM65.8359 87.2018L65.9376 88.0535L65.9462 88.0502L65.8359 87.2018ZM53.0788 88.0258L53.6448 87.1128L53.6408 87.1118L53.0788 88.0258ZM49.3024 86.5976L48.5372 87.4322L48.5394 87.4335L49.3024 86.5976ZM44.8061 81.5853L43.7905 82.1314L43.7918 82.1346L44.8061 81.5853ZM44.0032 78.3032L42.9477 78.6815L42.9486 78.6896L44.0032 78.3032ZM44.1035 74.7191L43.0537 74.9095L43.0535 74.9108L44.1035 74.7191ZM46.8824 67.2349L47.7901 67.4267L47.7909 67.4253L46.8824 67.2349ZM49.4437 63.6508L48.6739 63.2669L48.6712 63.27L49.4437 63.6508ZM52.6838 60.3687L53.2901 60.9181L53.2938 60.9149L52.6838 60.3687ZM60.9074 55.3427L60.7652 54.5067L60.7619 54.508L60.9074 55.3427ZM65.7443 53.9145L65.6276 54.8284L65.6324 54.8275L65.7443 53.9145ZM70.5998 54.3301C75.5443 54.3301 78.9313 55.5625 80.9003 57.9384L82.7494 56.5371C80.4696 53.7863 76.6053 52.4552 71.2959 52.4552L70.5998 54.3301ZM80.9018 57.9402C81.7265 58.927 82.1716 59.8823 82.2947 60.7978L84.4001 59.9946C84.2376 58.7861 83.6677 57.6358 82.7479 56.5353L80.9018 57.9402ZM82.296 60.8066C82.4273 61.6935 82.2495 62.8692 81.6891 64.3786H83.6891C84.3184 62.6838 84.5794 61.2045 84.3989 59.9858L82.296 60.8066ZM81.6891 64.3786C81.3292 65.3477 80.6782 66.1483 79.6937 66.8329L80.6157 68.1587C82.1061 67.1223 83.1447 65.8447 83.6891 64.3786H81.6891ZM79.6937 66.8329C78.7254 67.5063 77.755 67.8355 76.718 67.8355L76.0219 69.7104C77.5826 69.7104 79.1353 69.1881 80.6157 68.1587L79.6937 66.8329ZM76.718 67.8355C75.6808 67.8355 74.948 67.506 74.4697 66.8294L72.5682 68.1623C73.2936 69.1884 74.4614 69.7104 76.0219 69.7104L76.718 67.8355ZM74.4746 66.8365C74.0068 66.1526 73.953 65.3509 74.3141 64.3786H72.3141C71.7709 65.8415 71.8537 67.118 72.5632 68.1552L74.4746 66.8365ZM74.3141 64.3786C74.4977 63.8841 74.7701 63.4298 75.1313 63.0055L73.5931 62.2361C73.0191 62.9105 72.5928 63.628 72.3141 64.3786H74.3141ZM75.1358 63.0003C75.5112 62.5551 75.9412 62.1739 76.4313 61.8491L75.5713 60.4813C74.818 60.9805 74.1553 61.5696 73.5887 62.2414L75.1358 63.0003ZM77.047 60.7215C76.7677 59.3379 76.044 58.3111 74.8448 57.7029L73.3825 59.4092C74.205 59.8264 74.7397 60.539 74.9557 61.6089L77.047 60.7215ZM74.8472 57.7041C73.7029 57.118 72.1497 56.8496 70.2502 56.8496L69.5541 58.7245C71.2679 58.7245 72.5224 58.9687 73.3802 59.408L74.8472 57.7041ZM70.2502 56.8496C68.9291 56.8496 67.5906 57.1013 66.2451 57.6119L66.4677 59.308C67.4866 58.9213 68.5119 58.7245 69.5541 58.7245L70.2502 56.8496ZM66.2411 57.6134C64.9199 58.1189 63.6724 58.8265 62.5065 59.7285L63.5651 60.954C64.4818 60.2448 65.448 59.6981 66.4717 59.3065L66.2411 57.6134ZM62.5005 59.7332C61.3717 60.6148 60.3112 61.6445 59.3165 62.8129L60.8547 63.5823C61.7305 62.5535 62.6368 61.679 63.5711 60.9493L62.5005 59.7332ZM59.3165 62.8129C58.3175 63.9864 57.4245 65.267 56.6342 66.6502L58.4717 66.9957C59.1878 65.7423 59.9832 64.606 60.8547 63.5823L59.3165 62.8129ZM56.6314 66.6552C55.8573 68.0246 55.1917 69.4634 54.6322 70.9701H56.6322C57.1538 69.5655 57.7686 68.2396 58.4746 66.9906L56.6314 66.6552ZM54.6322 70.9701C54.0748 72.4715 53.6995 73.9219 53.5096 75.3193L55.6127 74.9153C55.7835 73.6578 56.1224 72.3434 56.6322 70.9701H54.6322ZM53.5096 75.3193C53.3197 76.7167 53.3237 78.0021 53.5287 79.1703L55.626 78.315C55.4487 77.3044 55.4418 76.1729 55.6127 74.9153L53.5096 75.3193ZM53.5287 79.1703C53.7317 80.3273 54.1001 81.351 54.6402 82.2342L56.5828 80.9638C56.1264 80.2175 55.8054 79.3369 55.626 78.315L53.5287 79.1703ZM54.6426 82.2381C55.1979 83.1299 55.961 83.8302 56.9313 84.3313L58.4024 82.6294C57.6356 82.2333 57.0284 81.6794 56.5804 80.9599L54.6426 82.2381ZM56.934 84.3327C57.9216 84.837 59.0631 85.0907 60.3502 85.0907L61.0464 83.2158C60.0484 83.2158 59.1689 83.0208 58.3997 82.628L56.934 84.3327ZM60.3502 85.0907C62.1997 85.0907 64.099 84.6238 66.0247 83.6992L65.5576 82.108C64.0132 82.8495 62.5172 83.2158 61.0464 83.2158L60.3502 85.0907ZM66.0216 83.7007C67.9513 82.7793 69.7251 81.4954 71.3381 79.8754L69.9638 78.9282C68.5869 80.311 67.1208 81.3616 65.5608 82.1065L66.0216 83.7007ZM71.3366 79.8769C72.9681 78.2428 74.2816 76.4032 75.2842 74.3729L73.3766 74.159C72.4896 75.9554 71.3501 77.5397 69.9653 78.9267L71.3366 79.8769ZM73.7502 75.1754L78.0298 76.274L79.1902 74.455L74.9106 73.3564L73.7502 75.1754ZM77.7003 75.1761C77.0848 76.2192 76.4611 77.1851 75.83 78.075L77.5263 78.6413C78.2068 77.6819 78.871 76.652 79.5196 75.5529L77.7003 75.1761ZM75.8318 78.0724C75.2102 78.9447 74.5119 79.8201 73.7356 80.699L75.2374 81.5103C76.0784 80.5581 76.8412 79.6026 77.5245 78.6439L75.8318 78.0724ZM73.7385 80.6956C72.9787 81.5509 72.1965 82.316 71.393 82.9943L72.5613 84.1312C73.493 83.3446 74.3838 82.4711 75.2344 81.5136L73.7385 80.6956ZM71.393 82.9943C70.5965 83.6666 69.7122 84.2982 68.7364 84.888L69.4796 86.3297C70.594 85.6562 71.6224 84.9236 72.5613 84.1312L71.393 82.9943ZM68.7364 84.888C67.7774 85.4676 66.7746 85.9561 65.7255 86.3534L65.9462 88.0502C67.1698 87.5869 68.3484 87.0135 69.4796 86.3297L68.7364 84.888ZM65.7342 86.3501C64.697 86.7357 63.54 87.0452 62.2579 87.2716L61.9706 89.1095C63.3848 88.8598 64.7089 88.5102 65.9376 88.0535L65.7342 86.3501ZM62.2579 87.2716C60.9882 87.4957 59.6504 87.6101 58.2429 87.6101L57.5467 89.4851C59.0689 89.4851 60.544 89.3614 61.9706 89.1095L62.2579 87.2716ZM58.2429 87.6101C56.566 87.6101 55.0345 87.4433 53.6448 87.1128L52.5127 88.9387C54.0483 89.304 55.7275 89.4851 57.5467 89.4851L58.2429 87.6101ZM53.6408 87.1118C52.2491 86.7881 51.0598 86.3364 50.0654 85.7616L48.5394 87.4335C49.6676 88.0856 50.9959 88.5859 52.5168 88.9397L53.6408 87.1118ZM50.0677 85.763C49.0701 85.1811 48.2088 84.4874 47.4823 83.6818L45.6643 85.119C46.4735 86.0163 47.4317 86.7874 48.5372 87.4322L50.0677 85.763ZM47.4823 83.6818C46.7572 82.8777 46.2044 81.9956 45.8204 81.0359L43.7918 82.1346C44.2283 83.2256 44.8537 84.2203 45.6643 85.119L47.4823 83.6818ZM45.8216 81.0391C45.4343 80.0544 45.1798 79.0139 45.0578 77.9168L42.9486 78.6896C43.0833 79.8996 43.364 81.0471 43.7905 82.1314L45.8216 81.0391ZM45.0586 77.925C44.9493 76.8214 44.9812 75.6891 45.1536 74.5273L43.0535 74.9108C42.8618 76.2025 42.8268 77.4597 42.9478 78.6815L45.0586 77.925ZM45.1534 74.5287C45.3294 73.3555 45.64 72.1696 46.0854 70.9701H44.0854C43.5926 72.2974 43.2486 73.6109 43.0537 74.9095L45.1534 74.5287ZM46.0854 70.9701C46.5307 69.7707 47.0989 68.5899 47.7901 67.4267L45.9748 67.0432C45.208 68.3335 44.5782 69.6428 44.0854 70.9701H46.0854ZM47.7909 67.4253C48.4844 66.2548 49.2926 65.1239 50.2161 64.0315L48.6712 63.27C47.6444 64.4846 46.7451 65.7432 45.9739 67.0445L47.7909 67.4253ZM50.2135 64.0346C51.1526 62.9298 52.178 61.8913 53.2901 60.9181L52.0775 59.8194C50.8462 60.8968 49.7114 62.0464 48.6739 63.2669L50.2135 64.0346ZM53.2938 60.9149C54.3933 59.9469 55.6016 59.0614 56.9221 58.2584L56.1712 56.8213C54.6915 57.7211 53.3246 58.7215 52.0738 59.8226L53.2938 60.9149ZM56.9221 58.2584C58.2468 57.4529 59.6231 56.7592 61.0528 56.1773L60.7619 54.508C59.1776 55.1529 57.6468 55.924 56.1712 56.8213L56.9221 58.2584ZM61.0496 56.1786C62.4708 55.6039 63.9956 55.1521 65.6276 54.8284L65.861 53.0006C64.0774 53.3543 62.3776 53.8547 60.7652 54.5067L61.0496 56.1786ZM65.6324 54.8275C67.2675 54.497 68.9229 54.3301 70.5998 54.3301L71.2959 52.4552C69.4767 52.4552 67.6631 52.6363 65.8563 53.0015L65.6324 54.8275ZM98.5897 83.6039H97.5897L97.2417 84.5414H98.2417L98.5897 83.6039ZM101.519 83.6039H102.519L102.868 82.6665H101.868L101.519 83.6039ZM99.8878 87.9983L99.5397 88.9358H100.54L100.888 87.9983H99.8878ZM90.7618 87.9983L89.7055 88.3671L89.7539 88.9358H90.4137L90.7618 87.9983ZM90.5187 85.142L91.575 84.7732L91.4429 83.2216L89.8983 84.6051L90.5187 85.142ZM86.0272 87.8884L85.979 87.018L85.9763 87.0189L86.0272 87.8884ZM77.07 88.0258L77.7696 87.1576L77.7658 87.1559L77.07 88.0258ZM74.991 86.4053L74.0377 87.0682L74.0408 87.0726L74.991 86.4053ZM74.1803 83.9335L73.1225 84.2817L73.1229 84.2888L74.1803 83.9335ZM78.8342 76.1335L79.2106 76.8515L79.2142 76.8493L78.8342 76.1335ZM90.3202 74.7877L89.7048 75.6873L89.7108 75.6891L90.3202 74.7877ZM93.038 76.4631L92.1149 77.1654L93.2656 78.5434L94.038 76.4631H93.038ZM95.5985 68.5807L94.5405 68.9239L94.541 68.9326L94.5416 68.9413L95.5985 68.5807ZM95.0034 67.3036L94.1561 68.0811L94.1606 68.0849L94.1652 68.0885L95.0034 67.3036ZM93.6266 66.6719L93.0778 67.5888L93.6266 66.6719ZM89.6046 66.8916L89.4461 66.0624L88.4405 66.4824L88.5522 67.2952L89.6046 66.8916ZM80.19 71.8902L79.2343 72.5496L79.2393 72.5566L80.19 71.8902ZM81.0187 67.0152L80.2495 66.6305L80.2395 66.6425L81.0187 67.0152ZM82.638 65.5733L83.0782 66.2504L83.1004 66.2355L83.1221 66.2198L82.638 65.5733ZM84.2363 64.5434L84.569 65.2871L84.5762 65.2829L84.5835 65.2787L84.2363 64.5434ZM86.1599 63.6233L86.3023 64.4592L86.3085 64.4567L86.1599 63.6233ZM91.414 62.3737L91.189 63.3043L91.1973 63.3033L91.414 62.3737ZM91.0189 81.9011L91.5505 82.512L91.8899 82.2485L92.0189 81.9011H91.0189ZM91.7225 80.006H92.7225L92.8718 79.604L92.664 79.3269L91.7225 80.006ZM90.1765 78.6465L89.3993 79.474L89.4048 79.4774L89.4105 79.4807L90.1765 78.6465ZM85.1164 78.7427L85.4756 79.471L85.4858 79.4649L85.1164 78.7427ZM88.2779 83.5627L88.4865 84.37L88.4903 84.3683L88.2779 83.5627ZM102.102 71.4508L97.5897 83.6039H99.5897L104.102 71.4508H102.102ZM98.2417 84.5414H101.171L101.868 82.6665H98.9378L98.2417 84.5414ZM100.519 83.6039L98.8878 87.9983H100.888L102.519 83.6039H100.519ZM100.236 87.0608H91.1099L90.4137 88.9358H99.5397L100.236 87.0608ZM91.8181 87.6295L91.575 84.7732L89.4624 85.5107L89.7055 88.3671L91.8181 87.6295ZM89.8983 84.6051C88.5352 85.8258 87.2326 86.6054 85.979 87.018L86.0754 88.7588C87.8256 88.1828 89.5174 87.1313 91.1391 85.6788L89.8983 84.6051ZM85.9763 87.0189C84.6806 87.4482 82.9064 87.6925 80.6068 87.6925L79.9106 89.5674C82.3181 89.5674 84.3896 89.3174 86.0782 88.7579L85.9763 87.0189ZM80.6068 87.6925C79.5061 87.6925 78.5647 87.5114 77.7696 87.1576L76.3703 88.8939C77.3855 89.3457 78.57 89.5674 79.9106 89.5674L80.6068 87.6925ZM77.7658 87.1559C76.9644 86.8049 76.3616 86.3306 75.9412 85.7381L74.0408 87.0726C74.5949 87.8534 75.3781 88.4593 76.3741 88.8956L77.7658 87.1559ZM75.9442 85.7424C75.5321 85.1498 75.2936 84.4325 75.2376 83.5782L73.1229 84.2888C73.193 85.357 73.4949 86.2877 74.0378 87.0682L75.9442 85.7424ZM75.238 83.5853C75.1913 82.7415 75.3459 81.8304 75.7123 80.8437H73.7123C73.2628 82.0542 73.0628 83.203 73.1225 84.2817L75.238 83.5853ZM75.7123 80.8437C76.3105 79.2326 77.4514 77.9229 79.2106 76.8515L78.4578 75.4155C76.1284 76.8342 74.5213 78.6647 73.7123 80.8437H75.7123ZM79.2142 76.8493C80.986 75.7641 82.9781 75.1896 85.2491 75.1896L85.9453 73.3147C83.2944 73.3147 80.7779 73.9945 78.4543 75.4177L79.2142 76.8493ZM85.2491 75.1896C87.1762 75.1896 88.6491 75.3641 89.7048 75.6873L90.9356 73.8881C89.6589 73.4973 87.9831 73.3147 85.9453 73.3147L85.2491 75.1896ZM89.7108 75.6891C90.7632 76.0021 91.5568 76.4972 92.1149 77.1654L93.9612 75.7608C93.2348 74.891 92.2166 74.2691 90.9296 73.8863L89.7108 75.6891ZM94.038 76.4631L96.1999 70.6406H94.1999L92.038 76.4631H94.038ZM96.1999 70.6406C96.5353 69.7373 96.7066 68.9186 96.6555 68.2201L94.5416 68.9413C94.5709 69.3414 94.4764 69.896 94.1999 70.6406H96.1999ZM96.6566 68.2375C96.6219 67.5207 96.3615 66.9306 95.8416 66.5187L94.1652 68.0885C94.3848 68.2625 94.5212 68.5238 94.5405 68.9239L96.6566 68.2375ZM95.8507 66.526C95.3986 66.1532 94.8363 65.8976 94.1755 65.755L93.0778 67.5888C93.5199 67.6842 93.8755 67.8497 94.1561 68.0811L95.8507 66.526ZM94.1755 65.755C93.5424 65.6184 92.7791 65.5559 91.9023 65.5559L91.2062 67.4308C91.9895 67.4308 92.6078 67.4874 93.0778 67.5888L94.1755 65.755ZM91.9023 65.5559C91.0913 65.5559 90.2675 65.7193 89.4461 66.0624L89.7631 67.7209C90.2131 67.5329 90.6891 67.4308 91.2062 67.4308L91.9023 65.5559ZM88.5522 67.2952C88.6166 67.7642 88.5531 68.2535 88.3602 68.7729H90.3602C90.6568 67.9741 90.7562 67.2091 90.6571 66.4881L88.5522 67.2952ZM88.3602 68.7729C88.0003 69.7421 87.3493 70.5427 86.3648 71.2273L87.2868 72.5531C88.7772 71.5166 89.8158 70.239 90.3602 68.7729H88.3602ZM86.3648 71.2273C85.3965 71.9007 84.4261 72.2298 83.3891 72.2298L82.693 74.1048C84.2537 74.1048 85.8064 73.5825 87.2868 72.5531L86.3648 71.2273ZM83.3891 72.2298C82.3519 72.2298 81.6191 71.9004 81.1408 71.2238L79.2393 72.5566C79.9647 73.5828 81.1325 74.1048 82.693 74.1048L83.3891 72.2298ZM81.1457 71.2309C80.6779 70.547 80.6241 69.7453 80.9852 68.7729H78.9852C78.442 70.2358 78.5248 71.5123 79.2343 72.5495L81.1457 71.2309ZM80.9852 68.7729C81.1707 68.2734 81.442 67.8149 81.7978 67.3879L80.2395 66.6425C79.6797 67.3141 79.262 68.0274 78.9852 68.7729H80.9852ZM81.7878 67.3999C82.1629 66.9592 82.5914 66.5782 83.0782 66.2504L82.1979 64.8962C81.4608 65.3924 80.8097 65.9726 80.2496 66.6305L81.7878 67.3999ZM83.1221 66.2198C83.6101 65.868 84.0924 65.5577 84.569 65.2871L83.9036 63.7997C83.316 64.1333 82.7327 64.5096 82.154 64.9268L83.1221 66.2198ZM84.5835 65.2787C85.0349 65.0164 85.6038 64.7417 86.3023 64.4592L86.0176 62.7874C85.2222 63.1091 84.5087 63.4478 83.8891 63.808L84.5835 65.2787ZM86.3085 64.4567C86.9944 64.1758 87.7177 63.9414 88.4802 63.7557L88.6002 61.9529C87.7092 62.1699 86.8457 62.4483 86.0114 62.7899L86.3085 64.4567ZM88.4802 63.7557C89.2362 63.5715 90.137 63.4192 91.189 63.3043L91.6389 61.443C90.5128 61.5661 89.4976 61.7343 88.6002 61.9529L88.4802 63.7557ZM91.1973 63.3033C92.2481 63.1812 93.3801 63.1189 94.5943 63.1189L95.2905 61.2439C94.0047 61.2439 92.7844 61.3098 91.6306 61.444L91.1973 63.3033ZM94.5943 63.1189C96.1157 63.1189 97.4528 63.3291 98.6147 63.743L99.911 61.9655C98.5544 61.4823 97.0113 61.2439 95.2905 61.2439L94.5943 63.1189ZM98.6147 63.743C99.7846 64.1598 100.693 64.7307 101.357 65.4465L103.164 63.9972C102.35 63.1202 101.26 62.4459 99.911 61.9655L98.6147 63.743ZM101.357 65.4465C102.014 66.1539 102.417 67.0236 102.564 68.0665L104.668 67.2547C104.487 65.9723 103.986 64.8829 103.164 63.9972L101.357 65.4465ZM102.564 68.0665C102.709 69.0953 102.56 70.2189 102.102 71.4508H104.102C104.658 69.9544 104.851 68.5513 104.668 67.2547L102.564 68.0665ZM92.0189 81.9011L92.7225 80.006H90.7225L90.0189 81.9011H92.0189ZM92.664 79.3269C92.2116 78.7234 91.6366 78.2185 90.9426 77.8124L89.4105 79.4807C89.9679 79.8069 90.4236 80.2084 90.781 80.6852L92.664 79.3269ZM90.9538 77.8191C90.2598 77.3939 89.4916 77.146 88.6389 77.146L87.9428 79.021C88.3792 79.021 88.868 79.1485 89.3993 79.474L90.9538 77.8191ZM88.6389 77.146C87.199 77.146 85.8385 77.363 84.747 78.0204L85.4858 79.4649C85.8535 79.2434 86.6092 79.021 87.9428 79.021L88.6389 77.146ZM84.7573 78.0143C83.6199 78.6882 82.9059 79.7146 82.4867 80.8437H84.4867C84.7881 80.032 85.1606 79.6576 85.4756 79.471L84.7573 78.0143ZM82.4867 80.8437C82.021 82.0978 81.863 83.2167 82.2746 84.0118L84.2567 82.8115C84.0996 82.5081 84.0889 81.915 84.4867 80.8437H82.4867ZM82.2746 84.0118C82.7292 84.8901 83.9212 85.1731 85.3362 85.1731L86.0324 83.2982C84.7911 83.2982 84.3707 83.0318 84.2567 82.8115L82.2746 84.0118ZM85.3362 85.1731C86.3068 85.1731 87.37 84.8826 88.4865 84.37L88.0693 82.7554C87.2315 83.14 86.5657 83.2982 86.0324 83.2982L85.3362 85.1731ZM88.4903 84.3683C89.5878 83.8609 90.61 83.2424 91.5505 82.512L90.4872 81.2902C89.7536 81.8598 88.9485 82.349 88.0655 82.7572L88.4903 84.3683ZM105.775 67.1251H104.775L104.427 68.0625H105.427L105.775 67.1251ZM107.406 62.7307L107.754 61.7932H106.754L106.406 62.7307H107.406ZM111.508 62.7307L111.16 63.6682H112.16L112.508 62.7307H111.508ZM131.577 52.1156L130.995 53.0246L131.003 53.0265L131.577 52.1156ZM134.445 54.4913L133.407 54.966L133.408 54.9719L134.445 54.4913ZM131.725 59.8057L131.264 59.1428L131.725 59.8057ZM125.089 59.8057L124.133 60.4651L124.138 60.4721L125.089 59.8057ZM125.118 56.1391L126.078 56.2324L126.571 55.2017H125.466L125.118 56.1391ZM122.26 57.7596L123.055 58.1128L122.26 57.7596ZM119.711 62.7307H118.711L118.363 63.6682H119.363L119.711 62.7307ZM128.5 62.7307H129.5L129.848 61.7932H128.848L128.5 62.7307ZM126.869 67.1251L126.52 68.0625H127.52L127.869 67.1251H126.869ZM118.079 67.1251L118.428 66.1876H117.428L117.079 67.1251H118.079ZM111.961 83.6039H110.961L110.613 84.5414H111.613L111.961 83.6039ZM118.406 83.6039H119.406L119.754 82.6665H118.754L118.406 83.6039ZM116.775 87.9983L116.426 88.9358H117.426L117.775 87.9983H116.775ZM99.1964 87.9983H98.1964L97.8483 88.9358H98.8483L99.1964 87.9983ZM100.828 83.6039L101.176 82.6665H100.176L99.828 83.6039H100.828ZM103.758 83.6039L103.41 84.5414H104.41L104.758 83.6039H103.758ZM109.876 67.1251H110.876L111.224 66.1876H110.224L109.876 67.1251ZM106.775 67.1251L108.406 62.7307H106.406L104.775 67.1251H106.775ZM107.058 63.6682H111.16L111.856 61.7932H107.754L107.058 63.6682ZM112.508 62.7307C113.718 59.4729 115.602 57.0454 118.097 55.322L117.184 53.9901C114.059 56.1484 111.855 59.104 110.508 62.7307H112.508ZM118.097 55.322C120.575 53.6111 123.685 52.6822 127.544 52.6822L128.24 50.8073C124.052 50.8073 120.328 51.8193 117.184 53.9901L118.097 55.322ZM127.544 52.6822C128.995 52.6822 130.137 52.8021 130.995 53.0245L132.159 51.2066C131.111 50.9347 129.796 50.8073 128.24 50.8073L127.544 52.6822ZM131.003 53.0265C131.9 53.2498 132.448 53.5221 132.74 53.7993L134.497 52.2994C133.98 51.8076 133.167 51.4573 132.152 51.2046L131.003 53.0265ZM132.74 53.7993C133.062 54.106 133.286 54.4916 133.407 54.966L135.484 54.0165C135.31 53.3374 134.983 52.7617 134.497 52.2994L132.74 53.7993ZM133.408 54.9719C133.543 55.4785 133.499 56.0434 133.259 56.6884H135.259C135.618 55.7223 135.698 54.8224 135.482 54.0106L133.408 54.9719ZM133.259 56.6884C132.899 57.6576 132.248 58.4582 131.264 59.1428L132.186 60.4686C133.676 59.4321 134.715 58.1545 135.259 56.6884H133.259ZM131.264 59.1428C130.296 59.8162 129.325 60.1453 128.288 60.1453L127.592 62.0203C129.153 62.0203 130.706 61.498 132.186 60.4686L131.264 59.1428ZM128.288 60.1453C127.251 60.1453 126.518 59.8159 126.04 59.1393L124.138 60.4721C124.864 61.4983 126.032 62.0203 127.592 62.0203L128.288 60.1453ZM126.045 59.1464C125.577 58.4625 125.523 57.6608 125.884 56.6884H123.884C123.341 58.1513 123.424 59.4278 124.133 60.465L126.045 59.1464ZM125.884 56.6884C125.941 56.5367 126.005 56.3847 126.078 56.2324L124.157 56.0459C124.055 56.2598 123.964 56.474 123.884 56.6884H125.884ZM125.466 55.2017C125.466 55.2017 125.466 55.2017 125.466 55.2017C125.466 55.2017 125.466 55.2017 125.465 55.2017C125.465 55.2017 125.465 55.2017 125.465 55.2017C125.465 55.2017 125.465 55.2017 125.465 55.2017C125.465 55.2017 125.465 55.2017 125.465 55.2017C125.465 55.2017 125.465 55.2017 125.465 55.2017C125.465 55.2017 125.465 55.2017 125.465 55.2017C125.465 55.2017 125.465 55.2017 125.465 55.2017C125.465 55.2017 125.465 55.2017 125.465 55.2017C125.465 55.2017 125.465 55.2017 125.465 55.2017C125.465 55.2017 125.465 55.2017 125.465 55.2017C125.465 55.2017 125.465 55.2017 125.465 55.2017C125.465 55.2017 125.465 55.2017 125.465 55.2017C125.465 55.2017 125.465 55.2017 125.465 55.2017C125.465 55.2017 125.465 55.2017 125.465 55.2017C125.465 55.2017 125.465 55.2017 125.465 55.2017C125.465 55.2017 125.465 55.2017 125.465 55.2017C125.465 55.2017 125.465 55.2017 125.465 55.2017C125.465 55.2017 125.465 55.2017 125.465 55.2017C125.464 55.2017 125.464 55.2017 125.464 55.2017C125.464 55.2017 125.464 55.2017 125.464 55.2017C125.464 55.2017 125.464 55.2017 125.464 55.2017C125.464 55.2017 125.464 55.2017 125.464 55.2017C125.464 55.2017 125.464 55.2017 125.464 55.2017C125.464 55.2017 125.464 55.2017 125.464 55.2017C125.464 55.2017 125.464 55.2017 125.464 55.2017C125.464 55.2017 125.464 55.2017 125.464 55.2017C125.464 55.2017 125.464 55.2017 125.464 55.2017C125.464 55.2017 125.464 55.2017 125.464 55.2017C125.464 55.2017 125.464 55.2017 125.464 55.2017C125.464 55.2017 125.464 55.2017 125.464 55.2017C125.464 55.2017 125.464 55.2017 125.464 55.2017C125.464 55.2017 125.464 55.2017 125.464 55.2017C125.464 55.2017 125.464 55.2017 125.464 55.2017C125.464 55.2017 125.464 55.2017 125.464 55.2017C125.464 55.2017 125.464 55.2017 125.464 55.2017C125.464 55.2017 125.464 55.2017 125.463 55.2017C125.463 55.2017 125.463 55.2017 125.463 55.2017C125.463 55.2017 125.463 55.2017 125.463 55.2017C125.463 55.2017 125.463 55.2017 125.463 55.2017C125.463 55.2017 125.463 55.2017 125.463 55.2017C125.463 55.2017 125.463 55.2017 125.463 55.2017C125.463 55.2017 125.463 55.2017 125.463 55.2017C125.463 55.2017 125.463 55.2017 125.463 55.2017C125.463 55.2017 125.463 55.2017 125.463 55.2017C125.463 55.2017 125.463 55.2017 125.463 55.2017C125.463 55.2017 125.463 55.2017 125.463 55.2017C125.463 55.2017 125.463 55.2017 125.463 55.2017C125.463 55.2017 125.463 55.2017 125.463 55.2017C125.463 55.2017 125.463 55.2017 125.463 55.2017C125.463 55.2017 125.463 55.2017 125.463 55.2017C125.463 55.2017 125.463 55.2017 125.463 55.2017C125.463 55.2017 125.463 55.2017 125.463 55.2017C125.463 55.2017 125.463 55.2017 125.463 55.2017C125.462 55.2017 125.462 55.2017 125.462 55.2017C125.462 55.2017 125.462 55.2017 125.462 55.2017C125.462 55.2017 125.462 55.2017 125.462 55.2017C125.462 55.2017 125.462 55.2017 125.462 55.2017C125.462 55.2017 125.462 55.2017 125.462 55.2017C125.462 55.2017 125.462 55.2017 125.462 55.2017C125.462 55.2017 125.462 55.2017 125.462 55.2017C125.462 55.2017 125.462 55.2017 125.462 55.2017C125.462 55.2017 125.462 55.2017 125.462 55.2017C125.462 55.2017 125.462 55.2017 125.462 55.2017C125.462 55.2017 125.462 55.2017 125.462 55.2017C125.462 55.2017 125.462 55.2017 125.462 55.2017C125.462 55.2017 125.462 55.2017 125.462 55.2017C125.462 55.2017 125.462 55.2017 125.462 55.2017C125.462 55.2017 125.462 55.2017 125.462 55.2017C125.462 55.2017 125.462 55.2017 125.462 55.2017C125.462 55.2017 125.462 55.2017 125.462 55.2017C125.462 55.2017 125.461 55.2017 125.461 55.2017C125.461 55.2017 125.461 55.2017 125.461 55.2017C125.461 55.2017 125.461 55.2017 125.461 55.2017C125.461 55.2017 125.461 55.2017 125.461 55.2017C125.461 55.2017 125.461 55.2017 125.461 55.2017C125.461 55.2017 125.461 55.2017 125.461 55.2017C125.461 55.2017 125.461 55.2017 125.461 55.2017C125.461 55.2017 125.461 55.2017 125.461 55.2017C125.461 55.2017 125.461 55.2017 125.461 55.2017C125.461 55.2017 125.461 55.2017 125.461 55.2017C125.461 55.2017 125.461 55.2017 125.461 55.2017C125.461 55.2017 125.461 55.2017 125.461 55.2017C125.461 55.2017 125.461 55.2017 125.461 55.2017C125.461 55.2017 125.461 55.2017 125.461 55.2017C125.461 55.2017 125.461 55.2017 125.461 55.2017C125.461 55.2017 125.461 55.2017 125.461 55.2017C125.461 55.2017 125.461 55.2017 125.461 55.2017C125.461 55.2017 125.461 55.2017 125.461 55.2017C125.46 55.2017 125.46 55.2017 125.46 55.2017C125.46 55.2017 125.46 55.2017 125.46 55.2017C125.46 55.2017 125.46 55.2017 125.46 55.2017C125.46 55.2017 125.46 55.2017 125.46 55.2017C125.46 55.2017 125.46 55.2017 125.46 55.2017C125.46 55.2017 125.46 55.2017 125.46 55.2017C125.46 55.2017 125.46 55.2017 125.46 55.2017C125.46 55.2017 125.46 55.2017 125.46 55.2017C125.46 55.2017 125.46 55.2017 125.46 55.2017C125.46 55.2017 125.46 55.2017 125.46 55.2017C125.46 55.2017 125.46 55.2017 125.46 55.2017C125.46 55.2017 125.46 55.2017 125.46 55.2017C125.46 55.2017 125.46 55.2017 125.46 55.2017C125.46 55.2017 125.46 55.2017 125.46 55.2017C125.46 55.2017 125.46 55.2017 125.46 55.2017C125.46 55.2017 125.46 55.2017 125.46 55.2017C125.46 55.2017 125.46 55.2017 125.46 55.2017C125.46 55.2017 125.459 55.2017 125.459 55.2017C125.459 55.2017 125.459 55.2017 125.459 55.2017C125.459 55.2017 125.459 55.2017 125.459 55.2017C125.459 55.2017 125.459 55.2017 125.459 55.2017C125.459 55.2017 125.459 55.2017 125.459 55.2017C125.459 55.2017 125.459 55.2017 125.459 55.2017C125.459 55.2017 125.459 55.2017 125.459 55.2017C125.459 55.2017 125.459 55.2017 125.459 55.2017C125.459 55.2017 125.459 55.2017 125.459 55.2017C125.459 55.2017 125.459 55.2017 125.459 55.2017C125.459 55.2017 125.459 55.2017 125.459 55.2017C125.459 55.2017 125.459 55.2017 125.459 55.2017C125.459 55.2017 125.459 55.2017 125.459 55.2017C125.459 55.2017 125.459 55.2017 125.459 55.2017C125.459 55.2017 125.459 55.2017 125.459 55.2017C125.459 55.2017 125.459 55.2017 125.459 55.2017C125.459 55.2017 125.459 55.2017 125.459 55.2017C125.459 55.2017 125.459 55.2017 125.459 55.2017C125.458 55.2017 125.458 55.2017 125.458 55.2017C125.458 55.2017 125.458 55.2017 125.458 55.2017C125.458 55.2017 125.458 55.2017 125.458 55.2017C125.458 55.2017 125.458 55.2017 125.458 55.2017C125.458 55.2017 125.458 55.2017 125.458 55.2017C125.458 55.2017 125.458 55.2017 125.458 55.2017C125.458 55.2017 125.458 55.2017 125.458 55.2017C125.458 55.2017 125.458 55.2017 125.458 55.2017C125.458 55.2017 125.458 55.2017 125.458 55.2017C125.458 55.2017 125.458 55.2017 125.458 55.2017C125.458 55.2017 125.458 55.2017 125.458 55.2017C125.458 55.2017 125.458 55.2017 125.458 55.2017C125.458 55.2017 125.458 55.2017 125.458 55.2017C125.458 55.2017 125.458 55.2017 125.458 55.2017C125.458 55.2017 125.458 55.2017 125.458 55.2017C125.458 55.2017 125.458 55.2017 125.458 55.2017C125.458 55.2017 125.458 55.2017 125.458 55.2017C125.458 55.2017 125.457 55.2017 125.457 55.2017C125.457 55.2017 125.457 55.2017 125.457 55.2017C125.457 55.2017 125.457 55.2017 125.457 55.2017C125.457 55.2017 125.457 55.2017 125.457 55.2017C125.457 55.2017 125.457 55.2017 125.457 55.2017C125.457 55.2017 125.457 55.2017 125.457 55.2017C125.457 55.2017 125.457 55.2017 125.457 55.2017C125.457 55.2017 125.457 55.2017 125.457 55.2017C125.457 55.2017 125.457 55.2017 125.457 55.2017C125.457 55.2017 125.457 55.2017 125.457 55.2017C125.457 55.2017 125.457 55.2017 125.457 55.2017C125.457 55.2017 125.457 55.2017 125.457 55.2017C125.457 55.2017 125.457 55.2017 125.457 55.2017C125.457 55.2017 125.457 55.2017 125.457 55.2017C125.457 55.2017 125.457 55.2017 125.457 55.2017C125.457 55.2017 125.457 55.2017 125.457 55.2017C125.457 55.2017 125.457 55.2017 125.457 55.2017C125.457 55.2017 125.457 55.2017 125.457 55.2017C125.456 55.2017 125.456 55.2017 125.456 55.2017C125.456 55.2017 125.456 55.2017 125.456 55.2017C125.456 55.2017 125.456 55.2017 125.456 55.2017C125.456 55.2017 125.456 55.2017 125.456 55.2017C125.456 55.2017 125.456 55.2017 125.456 55.2017C125.456 55.2017 125.456 55.2017 125.456 55.2017C125.456 55.2017 125.456 55.2017 125.456 55.2017C125.456 55.2017 125.456 55.2017 125.456 55.2017C125.456 55.2017 125.456 55.2017 125.456 55.2017C125.456 55.2017 125.456 55.2017 125.456 55.2017C125.456 55.2017 125.456 55.2017 125.456 55.2017C125.456 55.2017 125.456 55.2017 125.456 55.2017C125.456 55.2017 125.456 55.2017 125.456 55.2017C125.456 55.2017 125.456 55.2017 125.456 55.2017C125.456 55.2017 125.456 55.2017 125.456 55.2017C125.456 55.2017 125.456 55.2017 125.456 55.2017C125.456 55.2017 125.456 55.2017 125.456 55.2017C125.456 55.2017 125.455 55.2017 125.455 55.2017C125.455 55.2017 125.455 55.2017 125.455 55.2017C125.455 55.2017 125.455 55.2017 125.455 55.2017C125.455 55.2017 125.455 55.2017 125.455 55.2017C125.455 55.2017 125.455 55.2017 125.455 55.2017C125.455 55.2017 125.455 55.2017 125.455 55.2017C125.455 55.2017 125.455 55.2017 125.455 55.2017C125.455 55.2017 125.455 55.2017 125.455 55.2017C125.455 55.2017 125.455 55.2017 125.455 55.2017C125.455 55.2017 125.455 55.2017 125.455 55.2017C125.455 55.2017 125.455 55.2017 125.455 55.2017C125.455 55.2017 125.455 55.2017 125.455 55.2017C125.455 55.2017 125.455 55.2017 125.455 55.2017C125.455 55.2017 125.455 55.2017 125.455 55.2017C125.455 55.2017 125.455 55.2017 125.455 55.2017C125.455 55.2017 125.455 55.2017 125.455 55.2017C125.455 55.2017 125.455 55.2017 125.455 55.2017C125.455 55.2017 125.455 55.2017 125.454 55.2017C125.454 55.2017 125.454 55.2017 125.454 55.2017C125.454 55.2017 125.454 55.2017 125.454 55.2017C125.454 55.2017 125.454 55.2017 125.454 55.2017C125.454 55.2017 125.454 55.2017 125.454 55.2017C125.454 55.2017 125.454 55.2017 125.454 55.2017C125.454 55.2017 125.454 55.2017 125.454 55.2017C125.454 55.2017 125.454 55.2017 125.454 55.2017C125.454 55.2017 125.454 55.2017 125.454 55.2017C125.454 55.2017 125.454 55.2017 125.454 55.2017C125.454 55.2017 125.454 55.2017 125.454 55.2017C125.454 55.2017 125.454 55.2017 125.454 55.2017C125.454 55.2017 125.454 55.2017 125.454 55.2017C125.454 55.2017 125.454 55.2017 125.454 55.2017C125.454 55.2017 125.454 55.2017 125.454 55.2017C125.454 55.2017 125.454 55.2017 125.454 55.2017C125.454 55.2017 125.454 55.2017 125.454 55.2017C125.454 55.2017 125.454 55.2017 125.454 55.2017C125.454 55.2017 125.453 55.2017 125.453 55.2017C125.453 55.2017 125.453 55.2017 125.453 55.2017C125.453 55.2017 125.453 55.2017 125.453 55.2017C125.453 55.2017 125.453 55.2017 125.453 55.2017C125.453 55.2017 125.453 55.2017 125.453 55.2017C125.453 55.2017 125.453 55.2017 125.453 55.2017C125.453 55.2017 125.453 55.2017 125.453 55.2017C125.453 55.2017 125.453 55.2017 125.453 55.2017C125.453 55.2017 125.453 55.2017 125.453 55.2017C125.453 55.2017 125.453 55.2017 125.453 55.2017C125.453 55.2017 125.453 55.2017 125.453 55.2017C125.453 55.2017 125.453 55.2017 125.453 55.2017C125.453 55.2017 125.453 55.2017 125.453 55.2017C125.453 55.2017 125.453 55.2017 125.453 55.2017C125.453 55.2017 125.453 55.2017 125.453 55.2017C125.453 55.2017 125.453 55.2017 125.453 55.2017C125.453 55.2017 125.453 55.2017 125.453 55.2017C125.453 55.2017 125.453 55.2017 125.452 55.2017C125.452 55.2017 125.452 55.2017 125.452 55.2017C125.452 55.2017 125.452 55.2017 125.452 55.2017C125.452 55.2017 125.452 55.2017 125.452 55.2017C125.452 55.2017 125.452 55.2017 125.452 55.2017C125.452 55.2017 125.452 55.2017 125.452 55.2017C125.452 55.2017 125.452 55.2017 125.452 55.2017C125.452 55.2017 125.452 55.2017 125.452 55.2017C125.452 55.2017 125.452 55.2017 125.452 55.2017C125.452 55.2017 125.452 55.2017 125.452 55.2017C125.452 55.2017 125.452 55.2017 125.452 55.2017C125.452 55.2017 125.452 55.2017 125.452 55.2017C125.452 55.2017 125.452 55.2017 125.452 55.2017C125.452 55.2017 125.452 55.2017 125.452 55.2017C125.452 55.2017 125.452 55.2017 125.452 55.2017C125.452 55.2017 125.452 55.2017 125.452 55.2017C125.452 55.2017 125.452 55.2017 125.452 55.2017C125.452 55.2017 125.452 55.2017 125.452 55.2017C125.452 55.2017 125.451 55.2017 125.451 55.2017C125.451 55.2017 125.451 55.2017 125.451 55.2017C125.451 55.2017 125.451 55.2017 125.451 55.2017C125.451 55.2017 125.451 55.2017 125.451 55.2017C125.451 55.2017 125.451 55.2017 125.451 55.2017C125.451 55.2017 125.451 55.2017 125.451 55.2017C125.451 55.2017 125.451 55.2017 125.451 55.2017C125.451 55.2017 125.451 55.2017 125.451 55.2017C125.451 55.2017 125.451 55.2017 125.451 55.2017C125.451 55.2017 125.451 55.2017 125.451 55.2017C125.451 55.2017 125.451 55.2017 125.451 55.2017C125.451 55.2017 125.451 55.2017 125.451 55.2017C125.451 55.2017 125.451 55.2017 125.451 55.2017C125.451 55.2017 125.451 55.2017 125.451 55.2017C125.451 55.2017 125.451 55.2017 125.451 55.2017C125.451 55.2017 125.451 55.2017 125.451 55.2017C125.451 55.2017 125.451 55.2017 125.451 55.2017C125.451 55.2017 125.451 55.2017 125.45 55.2017C125.45 55.2017 125.45 55.2017 125.45 55.2017C125.45 55.2017 125.45 55.2017 125.45 55.2017C125.45 55.2017 125.45 55.2017 125.45 55.2017C125.45 55.2017 125.45 55.2017 125.45 55.2017C125.45 55.2017 125.45 55.2017 125.45 55.2017C125.45 55.2017 125.45 55.2017 125.45 55.2017C125.45 55.2017 125.45 55.2017 125.45 55.2017C125.45 55.2017 125.45 55.2017 125.45 55.2017C125.45 55.2017 125.45 55.2017 125.45 55.2017C125.45 55.2017 125.45 55.2017 125.45 55.2017C125.45 55.2017 125.45 55.2017 125.45 55.2017C125.45 55.2017 125.45 55.2017 125.45 55.2017C125.45 55.2017 125.45 55.2017 125.45 55.2017C125.45 55.2017 125.45 55.2017 125.45 55.2017C125.45 55.2017 125.45 55.2017 125.45 55.2017C125.45 55.2017 125.45 55.2017 125.45 55.2017C125.45 55.2017 125.45 55.2017 125.45 55.2017C125.45 55.2017 125.449 55.2017 125.449 55.2017C125.449 55.2017 125.449 55.2017 125.449 55.2017C125.449 55.2017 125.449 55.2017 125.449 55.2017C125.449 55.2017 125.449 55.2017 125.449 55.2017C125.449 55.2017 125.449 55.2017 125.449 55.2017C125.449 55.2017 125.449 55.2017 125.449 55.2017C125.449 55.2017 125.449 55.2017 125.449 55.2017C125.449 55.2017 125.449 55.2017 125.449 55.2017C125.449 55.2017 125.449 55.2017 125.449 55.2017C125.449 55.2017 125.449 55.2017 125.449 55.2017C125.449 55.2017 125.449 55.2017 125.449 55.2017C125.449 55.2017 125.449 55.2017 125.449 55.2017C125.449 55.2017 125.449 55.2017 125.449 55.2017C125.449 55.2017 125.449 55.2017 125.449 55.2017C125.449 55.2017 125.449 55.2017 125.449 55.2017C125.449 55.2017 125.449 55.2017 125.449 55.2017C125.449 55.2017 125.449 55.2017 125.449 55.2017C125.449 55.2017 125.449 55.2017 125.448 55.2017C125.448 55.2017 125.448 55.2017 125.448 55.2017C125.448 55.2017 125.448 55.2017 125.448 55.2017C125.448 55.2017 125.448 55.2017 125.448 55.2017C125.448 55.2017 125.448 55.2017 125.448 55.2017C125.448 55.2017 125.448 55.2017 125.448 55.2017C125.448 55.2017 125.448 55.2017 125.448 55.2017C125.448 55.2017 125.448 55.2017 125.448 55.2017C125.448 55.2017 125.448 55.2017 125.448 55.2017C125.448 55.2017 125.448 55.2017 125.448 55.2017C125.448 55.2017 125.448 55.2017 125.448 55.2017C125.448 55.2017 125.448 55.2017 125.448 55.2017C125.448 55.2017 125.448 55.2017 125.448 55.2017C125.448 55.2017 125.448 55.2017 125.448 55.2017C125.448 55.2017 125.448 55.2017 125.448 55.2017C125.448 55.2017 125.448 55.2017 125.448 55.2017C125.448 55.2017 125.448 55.2017 125.448 55.2017C125.448 55.2017 125.448 55.2017 125.448 55.2017C125.447 55.2017 125.447 55.2017 125.447 55.2017C125.447 55.2017 125.447 55.2017 125.447 55.2017C125.447 55.2017 125.447 55.2017 125.447 55.2017C125.447 55.2017 125.447 55.2017 125.447 55.2017C125.447 55.2017 125.447 55.2017 125.447 55.2017C125.447 55.2017 125.447 55.2017 125.447 55.2017C125.447 55.2017 125.447 55.2017 125.447 55.2017C125.447 55.2017 125.447 55.2017 125.447 55.2017C125.447 55.2017 125.447 55.2017 125.447 55.2017C125.447 55.2017 125.447 55.2017 125.447 55.2017C125.447 55.2017 125.447 55.2017 125.447 55.2017C125.447 55.2017 125.447 55.2017 125.447 55.2017C125.447 55.2017 125.447 55.2017 125.447 55.2017C125.447 55.2017 125.447 55.2017 125.447 55.2017C125.447 55.2017 125.447 55.2017 125.447 55.2017C125.447 55.2017 125.447 55.2017 125.447 55.2017C125.447 55.2017 125.447 55.2017 125.447 55.2017C125.447 55.2017 125.447 55.2017 125.446 55.2017C125.446 55.2017 125.446 55.2017 125.446 55.2017C125.446 55.2017 125.446 55.2017 125.446 55.2017C125.446 55.2017 125.446 55.2017 125.446 55.2017C125.446 55.2017 125.446 55.2017 125.446 55.2017C125.446 55.2017 125.446 55.2017 125.446 55.2017C125.446 55.2017 125.446 55.2017 125.446 55.2017C125.446 55.2017 125.446 55.2017 125.446 55.2017C125.446 55.2017 125.446 55.2017 125.446 55.2017C125.446 55.2017 125.446 55.2017 125.446 55.2017C125.446 55.2017 125.446 55.2017 125.446 55.2017C125.446 55.2017 125.446 55.2017 125.446 55.2017C125.446 55.2017 125.446 55.2017 125.446 55.2017C125.446 55.2017 125.446 55.2017 125.446 55.2017C125.446 55.2017 125.446 55.2017 125.446 55.2017C125.446 55.2017 125.446 55.2017 125.446 55.2017C125.446 55.2017 125.446 55.2017 125.446 55.2017C125.446 55.2017 125.446 55.2017 125.446 55.2017C125.445 55.2017 125.445 55.2017 125.445 55.2017C125.445 55.2017 125.445 55.2017 125.445 55.2017C125.445 55.2017 125.445 55.2017 125.445 55.2017C125.445 55.2017 125.445 55.2017 125.445 55.2017C125.445 55.2017 125.445 55.2017 125.445 55.2017C125.445 55.2017 125.445 55.2017 125.445 55.2017C125.445 55.2017 125.445 55.2017 125.445 55.2017C125.445 55.2017 125.445 55.2017 125.445 55.2017C125.445 55.2017 125.445 55.2017 125.445 55.2017C125.445 55.2017 125.445 55.2017 125.445 55.2017C125.445 55.2017 125.445 55.2017 125.445 55.2017C125.445 55.2017 125.445 55.2017 125.445 55.2017C125.445 55.2017 125.445 55.2017 125.445 55.2017C125.445 55.2017 125.445 55.2017 125.445 55.2017C125.445 55.2017 125.445 55.2017 125.445 55.2017C125.445 55.2017 125.445 55.2017 125.445 55.2017C125.445 55.2017 125.445 55.2017 125.445 55.2017C125.445 55.2017 125.445 55.2017 125.444 55.2017C125.444 55.2017 125.444 55.2017 125.444 55.2017C125.444 55.2017 125.444 55.2017 125.444 55.2017C125.444 55.2017 125.444 55.2017 125.444 55.2017C125.444 55.2017 125.444 55.2017 125.444 55.2017C125.444 55.2017 125.444 55.2017 125.444 55.2017C125.444 55.2017 125.444 55.2017 125.444 55.2017C125.444 55.2017 125.444 55.2017 125.444 55.2017C125.444 55.2017 125.444 55.2017 125.444 55.2017C125.444 55.2017 125.444 55.2017 125.444 55.2017C125.444 55.2017 125.444 55.2017 125.444 55.2017C125.444 55.2017 125.444 55.2017 125.444 55.2017C125.444 55.2017 125.444 55.2017 125.444 55.2017C125.444 55.2017 125.444 55.2017 125.444 55.2017C125.444 55.2017 125.444 55.2017 125.444 55.2017C125.444 55.2017 125.444 55.2017 125.444 55.2017C125.444 55.2017 125.444 55.2017 125.444 55.2017C125.444 55.2017 125.444 55.2017 125.444 55.2017C125.443 55.2017 125.443 55.2017 125.443 55.2017C125.443 55.2017 125.443 55.2017 125.443 55.2017C125.443 55.2017 125.443 55.2017 125.443 55.2017C125.443 55.2017 125.443 55.2017 125.443 55.2017C125.443 55.2017 125.443 55.2017 125.443 55.2017C125.443 55.2017 125.443 55.2017 125.443 55.2017C125.443 55.2017 125.443 55.2017 125.443 55.2017C125.443 55.2017 125.443 55.2017 125.443 55.2017C125.443 55.2017 125.443 55.2017 125.443 55.2017C125.443 55.2017 125.443 55.2017 125.443 55.2017C125.443 55.2017 125.443 55.2017 125.443 55.2017C125.443 55.2017 125.443 55.2017 125.443 55.2017C125.443 55.2017 125.443 55.2017 125.443 55.2017C125.443 55.2017 125.443 55.2017 125.443 55.2017C125.443 55.2017 125.443 55.2017 125.443 55.2017C125.443 55.2017 125.443 55.2017 125.443 55.2017C125.443 55.2017 125.443 55.2017 125.443 55.2017C125.443 55.2017 125.443 55.2017 125.442 55.2017C125.442 55.2017 125.442 55.2017 125.442 55.2017C125.442 55.2017 125.442 55.2017 125.442 55.2017C125.442 55.2017 125.442 55.2017 125.442 55.2017C125.442 55.2017 125.442 55.2017 125.442 55.2017C125.442 55.2017 125.442 55.2017 125.442 55.2017C125.442 55.2017 125.442 55.2017 125.442 55.2017C125.442 55.2017 125.442 55.2017 125.442 55.2017C125.442 55.2017 125.442 55.2017 125.442 55.2017C125.442 55.2017 125.442 55.2017 125.442 55.2017C125.442 55.2017 125.442 55.2017 125.442 55.2017C125.442 55.2017 125.442 55.2017 125.442 55.2017C125.442 55.2017 125.442 55.2017 125.442 55.2017C125.442 55.2017 125.442 55.2017 125.442 55.2017C125.442 55.2017 125.442 55.2017 125.442 55.2017C125.442 55.2017 125.442 55.2017 125.442 55.2017C125.442 55.2017 125.442 55.2017 125.442 55.2017C125.442 55.2017 125.442 55.2017 125.442 55.2017C125.441 55.2017 125.441 55.2017 125.441 55.2017C125.441 55.2017 125.441 55.2017 125.441 55.2017C125.441 55.2017 125.441 55.2017 125.441 55.2017C125.441 55.2017 125.441 55.2017 125.441 55.2017C125.441 55.2017 125.441 55.2017 125.441 55.2017C125.441 55.2017 125.441 55.2017 125.441 55.2017C125.441 55.2017 125.441 55.2017 125.441 55.2017C125.441 55.2017 125.441 55.2017 125.441 55.2017C125.441 55.2017 125.441 55.2017 125.441 55.2017C125.441 55.2017 125.441 55.2017 125.441 55.2017C125.441 55.2017 125.441 55.2017 125.441 55.2017C125.441 55.2017 125.441 55.2017 125.441 55.2017C125.441 55.2017 125.441 55.2017 125.441 55.2017C125.441 55.2017 125.441 55.2017 125.441 55.2017C125.441 55.2017 125.441 55.2017 125.441 55.2017C125.441 55.2017 125.441 55.2017 125.441 55.2017C125.441 55.2017 125.441 55.2017 125.441 55.2017C125.441 55.2017 125.44 55.2017 125.44 55.2017C125.44 55.2017 125.44 55.2017 125.44 55.2017C125.44 55.2017 125.44 55.2017 125.44 55.2017C125.44 55.2017 125.44 55.2017 125.44 55.2017C125.44 55.2017 125.44 55.2017 125.44 55.2017C125.44 55.2017 125.44 55.2017 125.44 55.2017C125.44 55.2017 125.44 55.2017 125.44 55.2017C125.44 55.2017 125.44 55.2017 125.44 55.2017C125.44 55.2017 125.44 55.2017 125.44 55.2017C125.44 55.2017 125.44 55.2017 125.44 55.2017C125.44 55.2017 125.44 55.2017 125.44 55.2017C125.44 55.2017 125.44 55.2017 125.44 55.2017C125.44 55.2017 125.44 55.2017 125.44 55.2017C125.44 55.2017 125.44 55.2017 125.44 55.2017C125.44 55.2017 125.44 55.2017 125.44 55.2017C125.44 55.2017 125.44 55.2017 125.44 55.2017C125.44 55.2017 125.44 55.2017 125.44 55.2017C125.44 55.2017 125.44 55.2017 125.44 55.2017C125.439 55.2017 125.439 55.2017 125.439 55.2017C125.439 55.2017 125.439 55.2017 125.439 55.2017C125.439 55.2017 125.439 55.2017 125.439 55.2017C125.439 55.2017 125.439 55.2017 125.439 55.2017C125.439 55.2017 125.439 55.2017 125.439 55.2017C125.439 55.2017 125.439 55.2017 125.439 55.2017C125.439 55.2017 125.439 55.2017 125.439 55.2017C125.439 55.2017 125.439 55.2017 125.439 55.2017C125.439 55.2017 125.439 55.2017 125.439 55.2017C125.439 55.2017 125.439 55.2017 125.439 55.2017C125.439 55.2017 125.439 55.2017 125.439 55.2017C125.439 55.2017 125.439 55.2017 125.439 55.2017C125.439 55.2017 125.439 55.2017 125.439 55.2017C125.439 55.2017 125.439 55.2017 125.439 55.2017C125.439 55.2017 125.439 55.2017 125.439 55.2017C125.439 55.2017 125.439 55.2017 125.439 55.2017C125.439 55.2017 125.439 55.2017 125.439 55.2017C125.439 55.2017 125.438 55.2017 125.438 55.2017C125.438 55.2017 125.438 55.2017 125.438 55.2017C125.438 55.2017 125.438 55.2017 125.438 55.2017C125.438 55.2017 125.438 55.2017 125.438 55.2017C125.438 55.2017 125.438 55.2017 125.438 55.2017C125.438 55.2017 125.438 55.2017 125.438 55.2017C125.438 55.2017 125.438 55.2017 125.438 55.2017C125.438 55.2017 125.438 55.2017 125.438 55.2017C125.438 55.2017 125.438 55.2017 125.438 55.2017C125.438 55.2017 125.438 55.2017 125.438 55.2017C125.438 55.2017 125.438 55.2017 125.438 55.2017C125.438 55.2017 125.438 55.2017 125.438 55.2017C125.438 55.2017 125.438 55.2017 125.438 55.2017C125.438 55.2017 125.438 55.2017 125.438 55.2017C125.438 55.2017 125.438 55.2017 125.438 55.2017C125.438 55.2017 125.438 55.2017 125.438 55.2017C125.438 55.2017 125.438 55.2017 125.438 55.2017C125.438 55.2017 125.438 55.2017 125.438 55.2017C125.437 55.2017 125.437 55.2017 125.437 55.2017C125.437 55.2017 125.437 55.2017 125.437 55.2017C125.437 55.2017 125.437 55.2017 125.437 55.2017C125.437 55.2017 125.437 55.2017 125.437 55.2017C125.437 55.2017 125.437 55.2017 125.437 55.2017C125.437 55.2017 125.437 55.2017 125.437 55.2017C125.437 55.2017 125.437 55.2017 125.437 55.2017C125.437 55.2017 125.437 55.2017 125.437 55.2017C125.437 55.2017 125.437 55.2017 125.437 55.2017C125.437 55.2017 125.437 55.2017 125.437 55.2017C125.437 55.2017 125.437 55.2017 125.437 55.2017C125.437 55.2017 125.437 55.2017 125.437 55.2017C125.437 55.2017 125.437 55.2017 125.437 55.2017C125.437 55.2017 125.437 55.2017 125.437 55.2017C125.437 55.2017 125.437 55.2017 125.437 55.2017C125.437 55.2017 125.437 55.2017 125.437 55.2017C125.437 55.2017 125.437 55.2017 125.437 55.2017C125.437 55.2017 125.436 55.2017 125.436 55.2017C125.436 55.2017 125.436 55.2017 125.436 55.2017C125.436 55.2017 125.436 55.2017 125.436 55.2017C125.436 55.2017 125.436 55.2017 125.436 55.2017L124.74 57.0766C124.74 57.0766 124.74 57.0766 124.74 57.0766C124.74 57.0766 124.74 57.0766 124.74 57.0766C124.74 57.0766 124.74 57.0766 124.74 57.0766C124.74 57.0766 124.74 57.0766 124.74 57.0766C124.74 57.0766 124.74 57.0766 124.74 57.0766C124.74 57.0766 124.74 57.0766 124.74 57.0766C124.741 57.0766 124.741 57.0766 124.741 57.0766C124.741 57.0766 124.741 57.0766 124.741 57.0766C124.741 57.0766 124.741 57.0766 124.741 57.0766C124.741 57.0766 124.741 57.0766 124.741 57.0766C124.741 57.0766 124.741 57.0766 124.741 57.0766C124.741 57.0766 124.741 57.0766 124.741 57.0766C124.741 57.0766 124.741 57.0766 124.741 57.0766C124.741 57.0766 124.741 57.0766 124.741 57.0766C124.741 57.0766 124.741 57.0766 124.741 57.0766C124.741 57.0766 124.741 57.0766 124.741 57.0766C124.741 57.0766 124.741 57.0766 124.741 57.0766C124.741 57.0766 124.741 57.0766 124.741 57.0766C124.741 57.0766 124.741 57.0766 124.741 57.0766C124.741 57.0766 124.741 57.0766 124.741 57.0766C124.741 57.0766 124.741 57.0766 124.741 57.0766C124.741 57.0766 124.741 57.0766 124.741 57.0766C124.741 57.0766 124.741 57.0766 124.741 57.0766C124.741 57.0766 124.741 57.0766 124.742 57.0766C124.742 57.0766 124.742 57.0766 124.742 57.0766C124.742 57.0766 124.742 57.0766 124.742 57.0766C124.742 57.0766 124.742 57.0766 124.742 57.0766C124.742 57.0766 124.742 57.0766 124.742 57.0766C124.742 57.0766 124.742 57.0766 124.742 57.0766C124.742 57.0766 124.742 57.0766 124.742 57.0766C124.742 57.0766 124.742 57.0766 124.742 57.0766C124.742 57.0766 124.742 57.0766 124.742 57.0766C124.742 57.0766 124.742 57.0766 124.742 57.0766C124.742 57.0766 124.742 57.0766 124.742 57.0766C124.742 57.0766 124.742 57.0766 124.742 57.0766C124.742 57.0766 124.742 57.0766 124.742 57.0766C124.742 57.0766 124.742 57.0766 124.742 57.0766C124.742 57.0766 124.742 57.0766 124.742 57.0766C124.742 57.0766 124.742 57.0766 124.742 57.0766C124.742 57.0766 124.742 57.0766 124.742 57.0766C124.742 57.0766 124.742 57.0766 124.742 57.0766C124.743 57.0766 124.743 57.0766 124.743 57.0766C124.743 57.0766 124.743 57.0766 124.743 57.0766C124.743 57.0766 124.743 57.0766 124.743 57.0766C124.743 57.0766 124.743 57.0766 124.743 57.0766C124.743 57.0766 124.743 57.0766 124.743 57.0766C124.743 57.0766 124.743 57.0766 124.743 57.0766C124.743 57.0766 124.743 57.0766 124.743 57.0766C124.743 57.0766 124.743 57.0766 124.743 57.0766C124.743 57.0766 124.743 57.0766 124.743 57.0766C124.743 57.0766 124.743 57.0766 124.743 57.0766C124.743 57.0766 124.743 57.0766 124.743 57.0766C124.743 57.0766 124.743 57.0766 124.743 57.0766C124.743 57.0766 124.743 57.0766 124.743 57.0766C124.743 57.0766 124.743 57.0766 124.743 57.0766C124.743 57.0766 124.743 57.0766 124.743 57.0766C124.743 57.0766 124.743 57.0766 124.743 57.0766C124.743 57.0766 124.743 57.0766 124.743 57.0766C124.743 57.0766 124.743 57.0766 124.744 57.0766C124.744 57.0766 124.744 57.0766 124.744 57.0766C124.744 57.0766 124.744 57.0766 124.744 57.0766C124.744 57.0766 124.744 57.0766 124.744 57.0766C124.744 57.0766 124.744 57.0766 124.744 57.0766C124.744 57.0766 124.744 57.0766 124.744 57.0766C124.744 57.0766 124.744 57.0766 124.744 57.0766C124.744 57.0766 124.744 57.0766 124.744 57.0766C124.744 57.0766 124.744 57.0766 124.744 57.0766C124.744 57.0766 124.744 57.0766 124.744 57.0766C124.744 57.0766 124.744 57.0766 124.744 57.0766C124.744 57.0766 124.744 57.0766 124.744 57.0766C124.744 57.0766 124.744 57.0766 124.744 57.0766C124.744 57.0766 124.744 57.0766 124.744 57.0766C124.744 57.0766 124.744 57.0766 124.744 57.0766C124.744 57.0766 124.744 57.0766 124.744 57.0766C124.744 57.0766 124.744 57.0766 124.744 57.0766C124.744 57.0766 124.744 57.0766 124.744 57.0766C124.745 57.0766 124.745 57.0766 124.745 57.0766C124.745 57.0766 124.745 57.0766 124.745 57.0766C124.745 57.0766 124.745 57.0766 124.745 57.0766C124.745 57.0766 124.745 57.0766 124.745 57.0766C124.745 57.0766 124.745 57.0766 124.745 57.0766C124.745 57.0766 124.745 57.0766 124.745 57.0766C124.745 57.0766 124.745 57.0766 124.745 57.0766C124.745 57.0766 124.745 57.0766 124.745 57.0766C124.745 57.0766 124.745 57.0766 124.745 57.0766C124.745 57.0766 124.745 57.0766 124.745 57.0766C124.745 57.0766 124.745 57.0766 124.745 57.0766C124.745 57.0766 124.745 57.0766 124.745 57.0766C124.745 57.0766 124.745 57.0766 124.745 57.0766C124.745 57.0766 124.745 57.0766 124.745 57.0766C124.745 57.0766 124.745 57.0766 124.745 57.0766C124.745 57.0766 124.745 57.0766 124.745 57.0766C124.745 57.0766 124.745 57.0766 124.745 57.0766C124.745 57.0766 124.745 57.0766 124.746 57.0766C124.746 57.0766 124.746 57.0766 124.746 57.0766C124.746 57.0766 124.746 57.0766 124.746 57.0766C124.746 57.0766 124.746 57.0766 124.746 57.0766C124.746 57.0766 124.746 57.0766 124.746 57.0766C124.746 57.0766 124.746 57.0766 124.746 57.0766C124.746 57.0766 124.746 57.0766 124.746 57.0766C124.746 57.0766 124.746 57.0766 124.746 57.0766C124.746 57.0766 124.746 57.0766 124.746 57.0766C124.746 57.0766 124.746 57.0766 124.746 57.0766C124.746 57.0766 124.746 57.0766 124.746 57.0766C124.746 57.0766 124.746 57.0766 124.746 57.0766C124.746 57.0766 124.746 57.0766 124.746 57.0766C124.746 57.0766 124.746 57.0766 124.746 57.0766C124.746 57.0766 124.746 57.0766 124.746 57.0766C124.746 57.0766 124.746 57.0766 124.746 57.0766C124.746 57.0766 124.746 57.0766 124.746 57.0766C124.746 57.0766 124.746 57.0766 124.746 57.0766C124.747 57.0766 124.747 57.0766 124.747 57.0766C124.747 57.0766 124.747 57.0766 124.747 57.0766C124.747 57.0766 124.747 57.0766 124.747 57.0766C124.747 57.0766 124.747 57.0766 124.747 57.0766C124.747 57.0766 124.747 57.0766 124.747 57.0766C124.747 57.0766 124.747 57.0766 124.747 57.0766C124.747 57.0766 124.747 57.0766 124.747 57.0766C124.747 57.0766 124.747 57.0766 124.747 57.0766C124.747 57.0766 124.747 57.0766 124.747 57.0766C124.747 57.0766 124.747 57.0766 124.747 57.0766C124.747 57.0766 124.747 57.0766 124.747 57.0766C124.747 57.0766 124.747 57.0766 124.747 57.0766C124.747 57.0766 124.747 57.0766 124.747 57.0766C124.747 57.0766 124.747 57.0766 124.747 57.0766C124.747 57.0766 124.747 57.0766 124.747 57.0766C124.747 57.0766 124.747 57.0766 124.747 57.0766C124.747 57.0766 124.747 57.0766 124.747 57.0766C124.747 57.0766 124.748 57.0766 124.748 57.0766C124.748 57.0766 124.748 57.0766 124.748 57.0766C124.748 57.0766 124.748 57.0766 124.748 57.0766C124.748 57.0766 124.748 57.0766 124.748 57.0766C124.748 57.0766 124.748 57.0766 124.748 57.0766C124.748 57.0766 124.748 57.0766 124.748 57.0766C124.748 57.0766 124.748 57.0766 124.748 57.0766C124.748 57.0766 124.748 57.0766 124.748 57.0766C124.748 57.0766 124.748 57.0766 124.748 57.0766C124.748 57.0766 124.748 57.0766 124.748 57.0766C124.748 57.0766 124.748 57.0766 124.748 57.0766C124.748 57.0766 124.748 57.0766 124.748 57.0766C124.748 57.0766 124.748 57.0766 124.748 57.0766C124.748 57.0766 124.748 57.0766 124.748 57.0766C124.748 57.0766 124.748 57.0766 124.748 57.0766C124.748 57.0766 124.748 57.0766 124.748 57.0766C124.748 57.0766 124.748 57.0766 124.748 57.0766C124.748 57.0766 124.748 57.0766 124.748 57.0766C124.749 57.0766 124.749 57.0766 124.749 57.0766C124.749 57.0766 124.749 57.0766 124.749 57.0766C124.749 57.0766 124.749 57.0766 124.749 57.0766C124.749 57.0766 124.749 57.0766 124.749 57.0766C124.749 57.0766 124.749 57.0766 124.749 57.0766C124.749 57.0766 124.749 57.0766 124.749 57.0766C124.749 57.0766 124.749 57.0766 124.749 57.0766C124.749 57.0766 124.749 57.0766 124.749 57.0766C124.749 57.0766 124.749 57.0766 124.749 57.0766C124.749 57.0766 124.749 57.0766 124.749 57.0766C124.749 57.0766 124.749 57.0766 124.749 57.0766C124.749 57.0766 124.749 57.0766 124.749 57.0766C124.749 57.0766 124.749 57.0766 124.749 57.0766C124.749 57.0766 124.749 57.0766 124.749 57.0766C124.749 57.0766 124.749 57.0766 124.749 57.0766C124.749 57.0766 124.749 57.0766 124.749 57.0766C124.749 57.0766 124.749 57.0766 124.749 57.0766C124.749 57.0766 124.75 57.0766 124.75 57.0766C124.75 57.0766 124.75 57.0766 124.75 57.0766C124.75 57.0766 124.75 57.0766 124.75 57.0766C124.75 57.0766 124.75 57.0766 124.75 57.0766C124.75 57.0766 124.75 57.0766 124.75 57.0766C124.75 57.0766 124.75 57.0766 124.75 57.0766C124.75 57.0766 124.75 57.0766 124.75 57.0766C124.75 57.0766 124.75 57.0766 124.75 57.0766C124.75 57.0766 124.75 57.0766 124.75 57.0766C124.75 57.0766 124.75 57.0766 124.75 57.0766C124.75 57.0766 124.75 57.0766 124.75 57.0766C124.75 57.0766 124.75 57.0766 124.75 57.0766C124.75 57.0766 124.75 57.0766 124.75 57.0766C124.75 57.0766 124.75 57.0766 124.75 57.0766C124.75 57.0766 124.75 57.0766 124.75 57.0766C124.75 57.0766 124.75 57.0766 124.75 57.0766C124.75 57.0766 124.75 57.0766 124.75 57.0766C124.75 57.0766 124.75 57.0766 124.75 57.0766C124.751 57.0766 124.751 57.0766 124.751 57.0766C124.751 57.0766 124.751 57.0766 124.751 57.0766C124.751 57.0766 124.751 57.0766 124.751 57.0766C124.751 57.0766 124.751 57.0766 124.751 57.0766C124.751 57.0766 124.751 57.0766 124.751 57.0766C124.751 57.0766 124.751 57.0766 124.751 57.0766C124.751 57.0766 124.751 57.0766 124.751 57.0766C124.751 57.0766 124.751 57.0766 124.751 57.0766C124.751 57.0766 124.751 57.0766 124.751 57.0766C124.751 57.0766 124.751 57.0766 124.751 57.0766C124.751 57.0766 124.751 57.0766 124.751 57.0766C124.751 57.0766 124.751 57.0766 124.751 57.0766C124.751 57.0766 124.751 57.0766 124.751 57.0766C124.751 57.0766 124.751 57.0766 124.751 57.0766C124.751 57.0766 124.751 57.0766 124.751 57.0766C124.751 57.0766 124.751 57.0766 124.751 57.0766C124.751 57.0766 124.751 57.0766 124.751 57.0766C124.751 57.0766 124.752 57.0766 124.752 57.0766C124.752 57.0766 124.752 57.0766 124.752 57.0766C124.752 57.0766 124.752 57.0766 124.752 57.0766C124.752 57.0766 124.752 57.0766 124.752 57.0766C124.752 57.0766 124.752 57.0766 124.752 57.0766C124.752 57.0766 124.752 57.0766 124.752 57.0766C124.752 57.0766 124.752 57.0766 124.752 57.0766C124.752 57.0766 124.752 57.0766 124.752 57.0766C124.752 57.0766 124.752 57.0766 124.752 57.0766C124.752 57.0766 124.752 57.0766 124.752 57.0766C124.752 57.0766 124.752 57.0766 124.752 57.0766C124.752 57.0766 124.752 57.0766 124.752 57.0766C124.752 57.0766 124.752 57.0766 124.752 57.0766C124.752 57.0766 124.752 57.0766 124.752 57.0766C124.752 57.0766 124.752 57.0766 124.752 57.0766C124.752 57.0766 124.752 57.0766 124.752 57.0766C124.752 57.0766 124.752 57.0766 124.752 57.0766C124.752 57.0766 124.752 57.0766 124.752 57.0766C124.753 57.0766 124.753 57.0766 124.753 57.0766C124.753 57.0766 124.753 57.0766 124.753 57.0766C124.753 57.0766 124.753 57.0766 124.753 57.0766C124.753 57.0766 124.753 57.0766 124.753 57.0766C124.753 57.0766 124.753 57.0766 124.753 57.0766C124.753 57.0766 124.753 57.0766 124.753 57.0766C124.753 57.0766 124.753 57.0766 124.753 57.0766C124.753 57.0766 124.753 57.0766 124.753 57.0766C124.753 57.0766 124.753 57.0766 124.753 57.0766C124.753 57.0766 124.753 57.0766 124.753 57.0766C124.753 57.0766 124.753 57.0766 124.753 57.0766C124.753 57.0766 124.753 57.0766 124.753 57.0766C124.753 57.0766 124.753 57.0766 124.753 57.0766C124.753 57.0766 124.753 57.0766 124.753 57.0766C124.753 57.0766 124.753 57.0766 124.753 57.0766C124.753 57.0766 124.753 57.0766 124.753 57.0766C124.753 57.0766 124.753 57.0766 124.753 57.0766C124.753 57.0766 124.754 57.0766 124.754 57.0766C124.754 57.0766 124.754 57.0766 124.754 57.0766C124.754 57.0766 124.754 57.0766 124.754 57.0766C124.754 57.0766 124.754 57.0766 124.754 57.0766C124.754 57.0766 124.754 57.0766 124.754 57.0766C124.754 57.0766 124.754 57.0766 124.754 57.0766C124.754 57.0766 124.754 57.0766 124.754 57.0766C124.754 57.0766 124.754 57.0766 124.754 57.0766C124.754 57.0766 124.754 57.0766 124.754 57.0766C124.754 57.0766 124.754 57.0766 124.754 57.0766C124.754 57.0766 124.754 57.0766 124.754 57.0766C124.754 57.0766 124.754 57.0766 124.754 57.0766C124.754 57.0766 124.754 57.0766 124.754 57.0766C124.754 57.0766 124.754 57.0766 124.754 57.0766C124.754 57.0766 124.754 57.0766 124.754 57.0766C124.754 57.0766 124.754 57.0766 124.754 57.0766C124.754 57.0766 124.754 57.0766 124.754 57.0766C124.754 57.0766 124.754 57.0766 124.755 57.0766C124.755 57.0766 124.755 57.0766 124.755 57.0766C124.755 57.0766 124.755 57.0766 124.755 57.0766C124.755 57.0766 124.755 57.0766 124.755 57.0766C124.755 57.0766 124.755 57.0766 124.755 57.0766C124.755 57.0766 124.755 57.0766 124.755 57.0766C124.755 57.0766 124.755 57.0766 124.755 57.0766C124.755 57.0766 124.755 57.0766 124.755 57.0766C124.755 57.0766 124.755 57.0766 124.755 57.0766C124.755 57.0766 124.755 57.0766 124.755 57.0766C124.755 57.0766 124.755 57.0766 124.755 57.0766C124.755 57.0766 124.755 57.0766 124.755 57.0766C124.755 57.0766 124.755 57.0766 124.755 57.0766C124.755 57.0766 124.755 57.0766 124.755 57.0766C124.755 57.0766 124.755 57.0766 124.755 57.0766C124.755 57.0766 124.755 57.0766 124.755 57.0766C124.755 57.0766 124.755 57.0766 124.755 57.0766C124.755 57.0766 124.755 57.0766 124.755 57.0766C124.755 57.0766 124.756 57.0766 124.756 57.0766C124.756 57.0766 124.756 57.0766 124.756 57.0766C124.756 57.0766 124.756 57.0766 124.756 57.0766C124.756 57.0766 124.756 57.0766 124.756 57.0766C124.756 57.0766 124.756 57.0766 124.756 57.0766C124.756 57.0766 124.756 57.0766 124.756 57.0766C124.756 57.0766 124.756 57.0766 124.756 57.0766C124.756 57.0766 124.756 57.0766 124.756 57.0766C124.756 57.0766 124.756 57.0766 124.756 57.0766C124.756 57.0766 124.756 57.0766 124.756 57.0766C124.756 57.0766 124.756 57.0766 124.756 57.0766C124.756 57.0766 124.756 57.0766 124.756 57.0766C124.756 57.0766 124.756 57.0766 124.756 57.0766C124.756 57.0766 124.756 57.0766 124.756 57.0766C124.756 57.0766 124.756 57.0766 124.756 57.0766C124.756 57.0766 124.756 57.0766 124.756 57.0766C124.756 57.0766 124.756 57.0766 124.756 57.0766C124.756 57.0766 124.756 57.0766 124.757 57.0766C124.757 57.0766 124.757 57.0766 124.757 57.0766C124.757 57.0766 124.757 57.0766 124.757 57.0766C124.757 57.0766 124.757 57.0766 124.757 57.0766C124.757 57.0766 124.757 57.0766 124.757 57.0766C124.757 57.0766 124.757 57.0766 124.757 57.0766C124.757 57.0766 124.757 57.0766 124.757 57.0766C124.757 57.0766 124.757 57.0766 124.757 57.0766C124.757 57.0766 124.757 57.0766 124.757 57.0766C124.757 57.0766 124.757 57.0766 124.757 57.0766C124.757 57.0766 124.757 57.0766 124.757 57.0766C124.757 57.0766 124.757 57.0766 124.757 57.0766C124.757 57.0766 124.757 57.0766 124.757 57.0766C124.757 57.0766 124.757 57.0766 124.757 57.0766C124.757 57.0766 124.757 57.0766 124.757 57.0766C124.757 57.0766 124.757 57.0766 124.757 57.0766C124.757 57.0766 124.757 57.0766 124.757 57.0766C124.757 57.0766 124.757 57.0766 124.757 57.0766C124.757 57.0766 124.758 57.0766 124.758 57.0766C124.758 57.0766 124.758 57.0766 124.758 57.0766C124.758 57.0766 124.758 57.0766 124.758 57.0766C124.758 57.0766 124.758 57.0766 124.758 57.0766C124.758 57.0766 124.758 57.0766 124.758 57.0766C124.758 57.0766 124.758 57.0766 124.758 57.0766C124.758 57.0766 124.758 57.0766 124.758 57.0766C124.758 57.0766 124.758 57.0766 124.758 57.0766C124.758 57.0766 124.758 57.0766 124.758 57.0766C124.758 57.0766 124.758 57.0766 124.758 57.0766C124.758 57.0766 124.758 57.0766 124.758 57.0766C124.758 57.0766 124.758 57.0766 124.758 57.0766C124.758 57.0766 124.758 57.0766 124.758 57.0766C124.758 57.0766 124.758 57.0766 124.758 57.0766C124.758 57.0766 124.758 57.0766 124.758 57.0766C124.758 57.0766 124.758 57.0766 124.758 57.0766C124.758 57.0766 124.758 57.0766 124.758 57.0766C124.758 57.0766 124.758 57.0766 124.759 57.0766C124.759 57.0766 124.759 57.0766 124.759 57.0766C124.759 57.0766 124.759 57.0766 124.759 57.0766C124.759 57.0766 124.759 57.0766 124.759 57.0766C124.759 57.0766 124.759 57.0766 124.759 57.0766C124.759 57.0766 124.759 57.0766 124.759 57.0766C124.759 57.0766 124.759 57.0766 124.759 57.0766C124.759 57.0766 124.759 57.0766 124.759 57.0766C124.759 57.0766 124.759 57.0766 124.759 57.0766C124.759 57.0766 124.759 57.0766 124.759 57.0766C124.759 57.0766 124.759 57.0766 124.759 57.0766C124.759 57.0766 124.759 57.0766 124.759 57.0766C124.759 57.0766 124.759 57.0766 124.759 57.0766C124.759 57.0766 124.759 57.0766 124.759 57.0766C124.759 57.0766 124.759 57.0766 124.759 57.0766C124.759 57.0766 124.759 57.0766 124.759 57.0766C124.759 57.0766 124.759 57.0766 124.759 57.0766C124.759 57.0766 124.759 57.0766 124.759 57.0766C124.759 57.0766 124.76 57.0766 124.76 57.0766C124.76 57.0766 124.76 57.0766 124.76 57.0766C124.76 57.0766 124.76 57.0766 124.76 57.0766C124.76 57.0766 124.76 57.0766 124.76 57.0766C124.76 57.0766 124.76 57.0766 124.76 57.0766C124.76 57.0766 124.76 57.0766 124.76 57.0766C124.76 57.0766 124.76 57.0766 124.76 57.0766C124.76 57.0766 124.76 57.0766 124.76 57.0766C124.76 57.0766 124.76 57.0766 124.76 57.0766C124.76 57.0766 124.76 57.0766 124.76 57.0766C124.76 57.0766 124.76 57.0766 124.76 57.0766C124.76 57.0766 124.76 57.0766 124.76 57.0766C124.76 57.0766 124.76 57.0766 124.76 57.0766C124.76 57.0766 124.76 57.0766 124.76 57.0766C124.76 57.0766 124.76 57.0766 124.76 57.0766C124.76 57.0766 124.76 57.0766 124.76 57.0766C124.76 57.0766 124.76 57.0766 124.76 57.0766C124.76 57.0766 124.76 57.0766 124.761 57.0766C124.761 57.0766 124.761 57.0766 124.761 57.0766C124.761 57.0766 124.761 57.0766 124.761 57.0766C124.761 57.0766 124.761 57.0766 124.761 57.0766C124.761 57.0766 124.761 57.0766 124.761 57.0766C124.761 57.0766 124.761 57.0766 124.761 57.0766C124.761 57.0766 124.761 57.0766 124.761 57.0766C124.761 57.0766 124.761 57.0766 124.761 57.0766C124.761 57.0766 124.761 57.0766 124.761 57.0766C124.761 57.0766 124.761 57.0766 124.761 57.0766C124.761 57.0766 124.761 57.0766 124.761 57.0766C124.761 57.0766 124.761 57.0766 124.761 57.0766C124.761 57.0766 124.761 57.0766 124.761 57.0766C124.761 57.0766 124.761 57.0766 124.761 57.0766C124.761 57.0766 124.761 57.0766 124.761 57.0766C124.761 57.0766 124.761 57.0766 124.761 57.0766C124.761 57.0766 124.761 57.0766 124.761 57.0766C124.761 57.0766 124.761 57.0766 124.761 57.0766C124.762 57.0766 124.762 57.0766 124.762 57.0766C124.762 57.0766 124.762 57.0766 124.762 57.0766C124.762 57.0766 124.762 57.0766 124.762 57.0766C124.762 57.0766 124.762 57.0766 124.762 57.0766C124.762 57.0766 124.762 57.0766 124.762 57.0766C124.762 57.0766 124.762 57.0766 124.762 57.0766C124.762 57.0766 124.762 57.0766 124.762 57.0766C124.762 57.0766 124.762 57.0766 124.762 57.0766C124.762 57.0766 124.762 57.0766 124.762 57.0766C124.762 57.0766 124.762 57.0766 124.762 57.0766C124.762 57.0766 124.762 57.0766 124.762 57.0766C124.762 57.0766 124.762 57.0766 124.762 57.0766C124.762 57.0766 124.762 57.0766 124.762 57.0766C124.762 57.0766 124.762 57.0766 124.762 57.0766C124.762 57.0766 124.762 57.0766 124.762 57.0766C124.762 57.0766 124.762 57.0766 124.762 57.0766C124.762 57.0766 124.762 57.0766 124.762 57.0766C124.762 57.0766 124.762 57.0766 124.763 57.0766C124.763 57.0766 124.763 57.0766 124.763 57.0766C124.763 57.0766 124.763 57.0766 124.763 57.0766C124.763 57.0766 124.763 57.0766 124.763 57.0766C124.763 57.0766 124.763 57.0766 124.763 57.0766C124.763 57.0766 124.763 57.0766 124.763 57.0766C124.763 57.0766 124.763 57.0766 124.763 57.0766C124.763 57.0766 124.763 57.0766 124.763 57.0766C124.763 57.0766 124.763 57.0766 124.763 57.0766C124.763 57.0766 124.763 57.0766 124.763 57.0766C124.763 57.0766 124.763 57.0766 124.763 57.0766C124.763 57.0766 124.763 57.0766 124.763 57.0766C124.763 57.0766 124.763 57.0766 124.763 57.0766C124.763 57.0766 124.763 57.0766 124.763 57.0766C124.763 57.0766 124.763 57.0766 124.763 57.0766C124.763 57.0766 124.763 57.0766 124.763 57.0766C124.763 57.0766 124.763 57.0766 124.763 57.0766C124.763 57.0766 124.763 57.0766 124.763 57.0766C124.764 57.0766 124.764 57.0766 124.764 57.0766C124.764 57.0766 124.764 57.0766 124.764 57.0766C124.764 57.0766 124.764 57.0766 124.764 57.0766C124.764 57.0766 124.764 57.0766 124.764 57.0766C124.764 57.0766 124.764 57.0766 124.764 57.0766C124.764 57.0766 124.764 57.0766 124.764 57.0766C124.764 57.0766 124.764 57.0766 124.764 57.0766C124.764 57.0766 124.764 57.0766 124.764 57.0766C124.764 57.0766 124.764 57.0766 124.764 57.0766C124.764 57.0766 124.764 57.0766 124.764 57.0766C124.764 57.0766 124.764 57.0766 124.764 57.0766C124.764 57.0766 124.764 57.0766 124.764 57.0766C124.764 57.0766 124.764 57.0766 124.764 57.0766C124.764 57.0766 124.764 57.0766 124.764 57.0766C124.764 57.0766 124.764 57.0766 124.764 57.0766C124.764 57.0766 124.764 57.0766 124.764 57.0766C124.764 57.0766 124.764 57.0766 124.764 57.0766C124.764 57.0766 124.764 57.0766 124.765 57.0766C124.765 57.0766 124.765 57.0766 124.765 57.0766C124.765 57.0766 124.765 57.0766 124.765 57.0766C124.765 57.0766 124.765 57.0766 124.765 57.0766C124.765 57.0766 124.765 57.0766 124.765 57.0766C124.765 57.0766 124.765 57.0766 124.765 57.0766C124.765 57.0766 124.765 57.0766 124.765 57.0766C124.765 57.0766 124.765 57.0766 124.765 57.0766C124.765 57.0766 124.765 57.0766 124.765 57.0766C124.765 57.0766 124.765 57.0766 124.765 57.0766C124.765 57.0766 124.765 57.0766 124.765 57.0766C124.765 57.0766 124.765 57.0766 124.765 57.0766C124.765 57.0766 124.765 57.0766 124.765 57.0766C124.765 57.0766 124.765 57.0766 124.765 57.0766C124.765 57.0766 124.765 57.0766 124.765 57.0766C124.765 57.0766 124.765 57.0766 124.765 57.0766C124.765 57.0766 124.765 57.0766 124.765 57.0766C124.765 57.0766 124.765 57.0766 124.765 57.0766C124.766 57.0766 124.766 57.0766 124.766 57.0766C124.766 57.0766 124.766 57.0766 124.766 57.0766C124.766 57.0766 124.766 57.0766 124.766 57.0766C124.766 57.0766 124.766 57.0766 124.766 57.0766C124.766 57.0766 124.766 57.0766 124.766 57.0766C124.766 57.0766 124.766 57.0766 124.766 57.0766C124.766 57.0766 124.766 57.0766 124.766 57.0766C124.766 57.0766 124.766 57.0766 124.766 57.0766C124.766 57.0766 124.766 57.0766 124.766 57.0766C124.766 57.0766 124.766 57.0766 124.766 57.0766C124.766 57.0766 124.766 57.0766 124.766 57.0766C124.766 57.0766 124.766 57.0766 124.766 57.0766C124.766 57.0766 124.766 57.0766 124.766 57.0766C124.766 57.0766 124.766 57.0766 124.766 57.0766C124.766 57.0766 124.766 57.0766 124.766 57.0766C124.766 57.0766 124.766 57.0766 124.766 57.0766C124.766 57.0766 124.766 57.0766 124.766 57.0766C124.766 57.0766 124.766 57.0766 124.767 57.0766C124.767 57.0766 124.767 57.0766 124.767 57.0766C124.767 57.0766 124.767 57.0766 124.767 57.0766C124.767 57.0766 124.767 57.0766 124.767 57.0766C124.767 57.0766 124.767 57.0766 124.767 57.0766C124.767 57.0766 124.767 57.0766 124.767 57.0766C124.767 57.0766 124.767 57.0766 124.767 57.0766C124.767 57.0766 124.767 57.0766 124.767 57.0766C124.767 57.0766 124.767 57.0766 124.767 57.0766C124.767 57.0766 124.767 57.0766 124.767 57.0766C124.767 57.0766 124.767 57.0766 124.767 57.0766C124.767 57.0766 124.767 57.0766 124.767 57.0766C124.767 57.0766 124.767 57.0766 124.767 57.0766C124.767 57.0766 124.767 57.0766 124.767 57.0766C124.767 57.0766 124.767 57.0766 124.767 57.0766C124.767 57.0766 124.767 57.0766 124.767 57.0766C124.767 57.0766 124.767 57.0766 124.767 57.0766C124.767 57.0766 124.767 57.0766 124.767 57.0766C124.768 57.0766 124.768 57.0766 124.768 57.0766C124.768 57.0766 124.768 57.0766 124.768 57.0766C124.768 57.0766 124.768 57.0766 124.768 57.0766C124.768 57.0766 124.768 57.0766 124.768 57.0766C124.768 57.0766 124.768 57.0766 124.768 57.0766C124.768 57.0766 124.768 57.0766 124.768 57.0766C124.768 57.0766 124.768 57.0766 124.768 57.0766C124.768 57.0766 124.768 57.0766 124.768 57.0766C124.768 57.0766 124.768 57.0766 124.768 57.0766C124.768 57.0766 124.768 57.0766 124.768 57.0766C124.768 57.0766 124.768 57.0766 124.768 57.0766C124.768 57.0766 124.768 57.0766 124.768 57.0766C124.768 57.0766 124.768 57.0766 124.768 57.0766C124.768 57.0766 124.768 57.0766 124.768 57.0766C124.768 57.0766 124.768 57.0766 124.768 57.0766C124.768 57.0766 124.768 57.0766 124.768 57.0766C124.768 57.0766 124.768 57.0766 124.768 57.0766C124.768 57.0766 124.769 57.0766 124.769 57.0766C124.769 57.0766 124.769 57.0766 124.769 57.0766C124.769 57.0766 124.769 57.0766 124.769 57.0766C124.769 57.0766 124.769 57.0766 124.769 57.0766C124.769 57.0766 124.769 57.0766 124.769 57.0766C124.769 57.0766 124.769 57.0766 124.769 57.0766C124.769 57.0766 124.769 57.0766 124.769 57.0766C124.769 57.0766 124.769 57.0766 124.769 57.0766C124.769 57.0766 124.769 57.0766 124.769 57.0766C124.769 57.0766 124.769 57.0766 124.769 57.0766C124.769 57.0766 124.769 57.0766 124.769 57.0766C124.769 57.0766 124.769 57.0766 124.769 57.0766C124.769 57.0766 124.769 57.0766 124.769 57.0766C124.769 57.0766 124.769 57.0766 124.769 57.0766C124.769 57.0766 124.769 57.0766 124.769 57.0766C124.769 57.0766 124.769 57.0766 124.769 57.0766C124.769 57.0766 124.769 57.0766 124.769 57.0766L125.466 55.2017ZM125.436 55.2017C124.726 55.2017 123.994 55.3954 123.281 55.8037C122.585 56.2025 121.984 56.7615 121.465 57.4063L123.055 58.1128C123.406 57.6774 123.711 57.4262 123.958 57.2848C124.188 57.1529 124.435 57.0766 124.74 57.0766L125.436 55.2017ZM121.465 57.4063C120.456 58.6598 119.552 60.4661 118.711 62.7307H120.711C121.529 60.5277 122.325 59.0199 123.055 58.1128L121.465 57.4063ZM119.363 63.6682H128.152L128.848 61.7932H120.059L119.363 63.6682ZM127.5 62.7307L125.869 67.1251H127.869L129.5 62.7307H127.5ZM127.217 66.1876H118.428L117.731 68.0625H126.52L127.217 66.1876ZM117.079 67.1251L110.961 83.6039H112.961L119.079 67.1251H117.079ZM111.613 84.5414H118.058L118.754 82.6665H112.309L111.613 84.5414ZM117.406 83.6039L115.775 87.9983H117.775L119.406 83.6039H117.406ZM117.123 87.0608H99.5445L98.8483 88.9358H116.426L117.123 87.0608ZM100.196 87.9983L101.828 83.6039H99.828L98.1964 87.9983H100.196ZM100.48 84.5414H103.41L104.106 82.6665H101.176L100.48 84.5414ZM104.758 83.6039L110.876 67.1251H108.876L102.758 83.6039H104.758ZM110.224 66.1876H106.123L105.427 68.0625H109.528L110.224 66.1876ZM129.508 77.0124L129.856 76.0749H128.775L128.484 77.0849L129.508 77.0124ZM129.009 79.855L127.951 80.1396L129.009 79.855ZM129.275 81.9011L128.257 82.4423L128.261 82.4509L129.275 81.9011ZM130.206 83.2194L129.351 83.9908L129.359 83.9973L130.206 83.2194ZM131.591 83.9472L130.99 84.8509L130.997 84.853L131.004 84.8548L131.591 83.9472ZM138.563 83.0409L138.842 83.8138L138.844 83.8128L138.563 83.0409ZM142.632 79.5803L143.287 78.6944L142.507 78.4066L141.843 79.2191L142.632 79.5803ZM146.059 80.8437L146.875 81.1699L147.565 80.2711L146.715 79.9577L146.059 80.8437ZM143.778 83.3567L143.13 82.8452L143.128 82.8475L143.778 83.3567ZM137.848 87.2155L138.015 88.0415L138.019 88.0399L137.848 87.2155ZM125.325 87.7648L124.634 88.637L124.636 88.6376L125.325 87.7648ZM121.836 85.1282L120.892 85.8041L120.896 85.8092L121.836 85.1282ZM120.388 80.9398L119.331 81.2987L119.332 81.3028L120.388 80.9398ZM124.417 70.0913L123.627 69.7317L123.623 69.7357L124.417 70.0913ZM128.99 65.8617L129.436 66.5349L129.436 66.5348L128.99 65.8617ZM134.462 63.1564L134.411 62.287L134.409 62.2877L134.462 63.1564ZM145.375 63.1564L144.677 64.0251L144.678 64.0258L145.375 63.1564ZM148.839 65.8617L147.891 66.5323L147.895 66.5374L148.839 65.8617ZM150.271 70.0913L149.214 70.4468L149.214 70.4508L150.271 70.0913ZM149.365 75.5293L150.261 75.7407L150.325 75.6364L150.365 75.5293H149.365ZM148.448 77.0124L148.1 77.9498H148.895L149.344 77.2238L148.448 77.0124ZM131.242 72.618L130.286 72.5162L129.779 73.5555H130.894L131.242 72.618ZM141.584 72.618L141.236 73.5555H142.355L142.617 72.5127L141.584 72.618ZM136.644 66.9053L136.689 67.7768L136.697 67.7742L136.705 67.7716L136.644 66.9053ZM134.739 67.9353L135.248 68.5632L135.257 68.5564L134.739 67.9353ZM132.912 69.8166L132.089 69.4987L132.085 69.5046L132.912 69.8166ZM128.484 77.0849C128.161 78.2039 127.979 79.2246 127.951 80.1396L130.068 79.5703C130.091 78.8191 130.242 77.9448 130.532 76.9399L128.484 77.0849ZM127.951 80.1396C127.923 81.0349 128.016 81.8111 128.257 82.4422L130.292 81.36C130.127 80.9292 130.043 80.3413 130.068 79.5703L127.951 80.1396ZM128.261 82.4509C128.506 83.0619 128.868 83.5782 129.351 83.9907L131.061 82.4481C130.729 82.1649 130.47 81.8023 130.289 81.3513L128.261 82.4509ZM129.359 83.9973C129.832 84.3867 130.375 84.675 130.99 84.8509L132.193 83.0435C131.784 82.9265 131.403 82.7296 131.053 82.4416L129.359 83.9973ZM131.004 84.8548C131.601 85.0139 132.262 85.0907 132.983 85.0907L133.679 83.2158C133.111 83.2158 132.612 83.1552 132.179 83.0396L131.004 84.8548ZM132.983 85.0907C135.155 85.0907 137.132 84.7023 138.842 83.8138L138.284 82.268C137.14 82.8626 135.628 83.2158 133.679 83.2158L132.983 85.0907ZM138.844 83.8128C140.528 82.9354 142.05 81.6187 143.42 79.9416L141.843 79.2191C140.67 80.6546 139.48 81.645 138.283 82.269L138.844 83.8128ZM141.976 80.4663L145.403 81.7297L146.715 79.9577L143.287 78.6944L141.976 80.4663ZM145.243 80.5175C144.611 81.341 143.907 82.1165 143.13 82.8452L144.426 83.8683C145.328 83.0223 146.145 82.1224 146.875 81.1699L145.243 80.5175ZM143.128 82.8475C142.375 83.5566 141.536 84.2154 140.607 84.8239L141.452 86.2016C142.536 85.4917 143.529 84.7133 144.429 83.866L143.128 82.8475ZM140.607 84.8239C139.683 85.4287 138.708 85.9512 137.678 86.3912L138.019 88.0399C139.217 87.5278 140.363 86.9151 141.452 86.2016L140.607 84.8239ZM137.682 86.3896C136.682 86.8137 135.588 87.1535 134.394 87.4029L134.188 89.2254C135.535 88.9437 136.813 88.5512 138.015 88.0415L137.682 86.3896ZM134.394 87.4029C133.214 87.6497 132.011 87.7749 130.785 87.7749L130.089 89.6498C131.461 89.6498 132.828 89.5096 134.188 89.2254L134.394 87.4029ZM130.785 87.7749C128.981 87.7749 127.394 87.4792 126.014 86.8921L124.636 88.6376C126.225 89.3138 128.046 89.6498 130.089 89.6498L130.785 87.7749ZM126.016 86.8927C124.638 86.3027 123.562 85.4868 122.776 84.4473L120.896 85.8092C121.813 87.0217 123.063 87.9636 124.634 88.637L126.016 86.8927ZM122.78 84.4524C122.013 83.414 121.564 82.1276 121.445 80.5769L119.332 81.3028C119.467 83.0662 119.983 84.572 120.892 85.8041L122.78 84.4524ZM121.446 80.581C121.337 79.0473 121.616 77.3669 122.299 75.5293H120.299C119.533 77.5916 119.206 79.5183 119.331 81.2987L121.446 80.581ZM122.299 75.5293C122.981 73.6917 123.953 72.0008 125.21 70.4468L123.623 69.7357C122.171 71.5324 121.065 73.4668 120.299 75.5293H122.299ZM125.207 70.4508C126.485 68.8812 127.895 67.5816 129.436 66.5349L128.544 65.1884C126.716 66.4305 125.077 67.9506 123.627 69.7317L125.207 70.4508ZM129.436 66.5348C131.005 65.4688 132.695 64.6318 134.516 64.0251L134.409 62.2877C132.329 62.981 130.37 63.9475 128.544 65.1885L129.436 66.5348ZM134.514 64.0258C136.333 63.4225 138.139 63.1189 139.94 63.1189L140.636 61.2439C138.589 61.2439 136.512 61.5903 134.411 62.287L134.514 64.0258ZM139.94 63.1189C141.741 63.1189 143.316 63.4225 144.677 64.0251L146.074 62.2877C144.499 61.5903 142.683 61.2439 140.636 61.2439L139.94 63.1189ZM144.678 64.0258C146.057 64.6325 147.124 65.4687 147.891 66.5323L149.786 65.191C148.89 63.9476 147.648 62.9803 146.072 62.287L144.678 64.0258ZM147.895 66.5374C148.666 67.583 149.111 68.8804 149.214 70.4468L151.328 69.7357C151.211 67.9514 150.7 66.4291 149.783 65.1859L147.895 66.5374ZM149.214 70.4508C149.325 72.0039 149.047 73.6933 148.365 75.5293H150.365C151.132 73.4652 151.457 71.5293 151.328 69.7317L149.214 70.4508ZM148.469 75.3179L147.553 76.801L149.344 77.2238L150.261 75.7407L148.469 75.3179ZM148.796 76.0749H129.856L129.16 77.9498H148.1L148.796 76.0749ZM130.894 73.5555H141.236L141.932 71.6806H131.59L130.894 73.5555ZM142.617 72.5127C143.163 70.3351 143.219 68.5817 142.595 67.4115L140.62 68.6238C141.02 69.3762 141.061 70.6896 140.551 72.7233L142.617 72.5127ZM142.595 67.4115C141.963 66.2244 140.74 65.6383 139.034 65.6383L138.338 67.5132C139.502 67.5132 140.228 67.8884 140.62 68.6238L142.595 67.4115ZM139.034 65.6383C138.211 65.6383 137.391 65.7653 136.584 66.0391L136.705 67.7716C137.194 67.6059 137.735 67.5132 138.338 67.5132L139.034 65.6383ZM136.599 66.0339C135.771 66.3046 134.975 66.7404 134.22 67.3141L135.257 68.5564C135.754 68.178 136.229 67.9272 136.689 67.7768L136.599 66.0339ZM134.229 67.3074C133.453 67.8891 132.744 68.6328 132.089 69.4987L133.735 70.1345C134.27 69.4258 134.779 68.9153 135.248 68.5632L134.229 67.3074ZM132.085 69.5046C131.439 70.3688 130.842 71.3769 130.286 72.5162L132.198 72.7198C132.705 71.6802 133.222 70.8208 133.739 70.1286L132.085 69.5046Z" fill="black"/>
<path d="M145.571 59.8319L143.821 57.1317L152.108 52.3512L153.378 55.7459L145.571 59.8319Z" stroke="black"/>
</svg>
