<svg width="32" height="32" viewBox="0 0 32 32" fill="none" xmlns="http://www.w3.org/2000/svg">
<path d="M16 0C12.1339 0 9 3.52563 9 7.875C9 11.3912 13.575 17.8 15.3278 20.1262C15.6828 20.5975 16.3178 20.5975 16.6722 20.1262C18.425 17.8 23 11.3912 23 7.875C23 3.52563 19.8661 0 16 0ZM16 10.5C14.7111 10.5 13.6667 9.325 13.6667 7.875C13.6667 6.425 14.7111 5.25 16 5.25C17.2889 5.25 18.3333 6.425 18.3333 7.875C18.3333 9.325 17.2889 10.5 16 10.5ZM1.11778 13.4969C0.787877 13.6453 0.505072 13.9016 0.305839 14.2325C0.106605 14.5635 7.90115e-05 14.954 0 15.3538L0 30.9988C0 31.7063 0.635 32.19 1.21889 31.9275L8.88889 28V13.4325C8.39778 12.4338 7.99611 11.4613 7.70833 10.5312L1.11778 13.4969ZM16 22.4794C15.2183 22.4794 14.4789 22.0931 13.9717 21.4194C12.8794 19.9694 11.7178 18.3181 10.6667 16.6244V27.9994L21.3333 31.9994V16.625C20.2822 18.3181 19.1211 19.97 18.0283 21.42C17.5211 22.0931 16.7817 22.4794 16 22.4794ZM30.7811 10.0725L23.1111 14V32L30.8822 28.5031C31.2122 28.3548 31.495 28.0985 31.6943 27.7675C31.8935 27.4366 32 27.046 32 26.6462V11.0013C32 10.2938 31.365 9.81 30.7811 10.0725Z" fill="#C6A1A1"/>
<path fill-rule="evenodd" clip-rule="evenodd" d="M16 0C12.1339 0 9 3.52563 9 7.875C9 11.3913 13.575 17.8 15.3278 20.1262C15.6828 20.5975 16.3178 20.5975 16.6722 20.1262C18.425 17.8 23 11.3913 23 7.875C23 3.52563 19.8661 0 16 0ZM16 10.5C14.7111 10.5 13.6667 9.325 13.6667 7.875C13.6667 6.425 14.7111 5.25 16 5.25C17.2889 5.25 18.3333 6.425 18.3333 7.875C18.3333 9.325 17.2889 10.5 16 10.5Z" fill="#D75757"/>
</svg>
