<svg width="30" height="30" viewBox="0 0 30 30" fill="none" xmlns="http://www.w3.org/2000/svg">
<path d="M7.928 17.928V18.968H22.088V17.928H7.928ZM10.616 15.048V16.024H18.312V15.048H10.616ZM14.392 16.952V20.936C14.392 21.16 14.328 21.24 14.04 21.24C13.72 21.272 12.696 21.272 11.528 21.224C11.704 21.544 11.896 21.976 11.976 22.296C13.368 22.296 14.296 22.296 14.856 22.12C15.416 21.96 15.576 21.656 15.576 20.968V16.952H14.392ZM17.912 15.048V15.272C17.24 15.88 15.88 16.648 14.68 17.08C14.856 17.24 15.16 17.56 15.304 17.768C16.664 17.256 18.184 16.44 19.208 15.592L18.456 14.984L18.216 15.048H17.912ZM7.944 10.92V11.944H22.072V10.92H7.944ZM14.36 8.776V14.616H15.544V8.776H14.36ZM13.752 11.256C12.392 12.872 9.768 14.408 7.48 15.112C7.72 15.352 8.072 15.768 8.248 16.04C10.536 15.208 13.208 13.544 14.696 11.688L13.752 11.256ZM16.248 11.288L15.304 11.72C16.76 13.496 19.352 15.112 21.608 15.912C21.8 15.624 22.136 15.176 22.392 14.952C20.136 14.28 17.576 12.84 16.248 11.288ZM19.432 7.64C17.096 8.184 12.632 8.536 8.968 8.648C9.08 8.904 9.224 9.352 9.256 9.624C13.016 9.512 17.576 9.176 20.424 8.504L19.432 7.64Z" fill="#AB423B"/>
<rect x="0.5" y="0.5" width="29" height="29" stroke="#AB423B"/>
</svg>
