<svg width="30" height="30" viewBox="0 0 30 30" fill="none" xmlns="http://www.w3.org/2000/svg">
<path d="M10.2188 17.3203L11.6484 17.1953C11.7161 17.7682 11.8724 18.2396 12.1172 18.6094C12.3672 18.974 12.7526 19.2708 13.2734 19.5C13.7943 19.724 14.3802 19.8359 15.0312 19.8359C15.6094 19.8359 16.1198 19.75 16.5625 19.5781C17.0052 19.4062 17.3333 19.1719 17.5469 18.875C17.7656 18.5729 17.875 18.2448 17.875 17.8906C17.875 17.5312 17.7708 17.2188 17.5625 16.9531C17.3542 16.6823 17.0104 16.4557 16.5312 16.2734C16.224 16.1536 15.5443 15.9688 14.4922 15.7188C13.4401 15.4635 12.7031 15.224 12.2812 15C11.7344 14.7135 11.3255 14.3594 11.0547 13.9375C10.7891 13.5104 10.6562 13.0339 10.6562 12.5078C10.6562 11.9297 10.8203 11.3906 11.1484 10.8906C11.4766 10.3854 11.9557 10.0026 12.5859 9.74219C13.2161 9.48177 13.9167 9.35156 14.6875 9.35156C15.5365 9.35156 16.2839 9.48958 16.9297 9.76562C17.5807 10.0365 18.0807 10.4375 18.4297 10.9688C18.7786 11.5 18.9661 12.1016 18.9922 12.7734L17.5391 12.8828C17.4609 12.1589 17.1953 11.612 16.7422 11.2422C16.2943 10.8724 15.6302 10.6875 14.75 10.6875C13.8333 10.6875 13.1641 10.8568 12.7422 11.1953C12.3255 11.5286 12.1172 11.9323 12.1172 12.4062C12.1172 12.8177 12.2656 13.1562 12.5625 13.4219C12.8542 13.6875 13.6146 13.9609 14.8438 14.2422C16.0781 14.5182 16.9245 14.7604 17.3828 14.9688C18.0495 15.276 18.5417 15.6667 18.8594 16.1406C19.1771 16.6094 19.3359 17.151 19.3359 17.7656C19.3359 18.375 19.1615 18.9505 18.8125 19.4922C18.4635 20.0286 17.9609 20.4479 17.3047 20.75C16.6536 21.0469 15.9193 21.1953 15.1016 21.1953C14.0651 21.1953 13.1953 21.0443 12.4922 20.7422C11.7943 20.4401 11.2448 19.987 10.8438 19.3828C10.4479 18.7734 10.2396 18.0859 10.2188 17.3203Z" fill="black"/>
<rect x="0.5" y="0.5" width="29" height="29" stroke="black"/>
</svg>
