<svg width="15" height="14" viewBox="0 0 15 14" fill="none" xmlns="http://www.w3.org/2000/svg">
<path d="M13.9286 5.46996H9.10714V1.03159C9.10714 0.486967 8.62734 0.0452881 8.03571 0.0452881H6.96429C6.37266 0.0452881 5.89286 0.486967 5.89286 1.03159V5.46996H1.07143C0.479799 5.46996 0 5.91164 0 6.45626V7.44257C0 7.98719 0.479799 8.42887 1.07143 8.42887H5.89286V12.8672C5.89286 13.4119 6.37266 13.8535 6.96429 13.8535H8.03571C8.62734 13.8535 9.10714 13.4119 9.10714 12.8672V8.42887H13.9286C14.5202 8.42887 15 7.98719 15 7.44257V6.45626C15 5.91164 14.5202 5.46996 13.9286 5.46996Z" fill="black"/>
</svg>
