<svg width="23" height="23" viewBox="0 0 23 23" fill="none" xmlns="http://www.w3.org/2000/svg">
<path d="M19.7593 0.300293H2.57178C1.27783 0.300293 0.228027 1.3501 0.228027 2.64404V19.8315C0.228027 21.1255 1.27783 22.1753 2.57178 22.1753H19.7593C21.0532 22.1753 22.103 21.1255 22.103 19.8315V2.64404C22.103 1.3501 21.0532 0.300293 19.7593 0.300293ZM18.1968 12.605C18.1968 12.9272 17.9331 13.1909 17.6108 13.1909H13.1187V17.6831C13.1187 18.0054 12.855 18.269 12.5327 18.269H9.79834C9.47607 18.269 9.2124 18.0054 9.2124 17.6831V13.1909H4.72021C4.39795 13.1909 4.13428 12.9272 4.13428 12.605V9.87061C4.13428 9.54834 4.39795 9.28467 4.72021 9.28467H9.2124V4.79248C9.2124 4.47021 9.47607 4.20654 9.79834 4.20654H12.5327C12.855 4.20654 13.1187 4.47021 13.1187 4.79248V9.28467H17.6108C17.9331 9.28467 18.1968 9.54834 18.1968 9.87061V12.605Z" fill="#525252"/>
</svg>
